<svg width="18" height="18" viewBox="0 0 18 18" fill="none" xmlns="http://www.w3.org/2000/svg">
<path fill-rule="evenodd" clip-rule="evenodd" d="M8.219 0.374984L5 4.39898L1.781 0.374984C1.515 0.0429837 1.068 -0.0840163 0.669 0.0559837C0.269 0.196984 0 0.574984 0 0.999984V16C0 17.103 0.897 18 2 18H16C17.103 18 18 17.103 18 16V0.999984C18 0.574984 17.731 0.196984 17.331 0.0559837C16.931 -0.0820163 16.485 0.0439836 16.219 0.374984L13 4.39898L9.781 0.374984C9.4 -0.0990164 8.6 -0.0990164 8.219 0.374984ZM2 16V14H16.001V16H2ZM12.219 6.62498C12.6 7.09998 13.401 7.09998 13.782 6.62498L16 3.85098L16.001 12H2V3.85098L4.219 6.62498C4.6 7.09998 5.401 7.09998 5.782 6.62498L9 2.60098L12.219 6.62498Z" fill="#8592A3"/>
<path fill-rule="evenodd" clip-rule="evenodd" d="M8.219 0.374984L5 4.39898L1.781 0.374984C1.515 0.0429837 1.068 -0.0840163 0.669 0.0559837C0.269 0.196984 0 0.574984 0 0.999984V16C0 17.103 0.897 18 2 18H16C17.103 18 18 17.103 18 16V0.999984C18 0.574984 17.731 0.196984 17.331 0.0559837C16.931 -0.0820163 16.485 0.0439836 16.219 0.374984L13 4.39898L9.781 0.374984C9.4 -0.0990164 8.6 -0.0990164 8.219 0.374984ZM2 16V14H16.001V16H2ZM12.219 6.62498C12.6 7.09998 13.401 7.09998 13.782 6.62498L16 3.85098L16.001 12H2V3.85098L4.219 6.62498C4.6 7.09998 5.401 7.09998 5.782 6.62498L9 2.60098L12.219 6.62498Z" fill="black" fill-opacity="0.1"/>
</svg>
