<svg width="18" height="18" viewBox="0 0 18 18" fill="none" xmlns="http://www.w3.org/2000/svg">
<path fill-rule="evenodd" clip-rule="evenodd" d="M0.899109 3.6V5.4V16.2C0.899109 17.1927 1.70641 18 2.69911 18H15.2991C16.2918 18 17.0991 17.1927 17.0991 16.2V5.4V3.6C17.0991 2.6073 16.2918 1.8 15.2991 1.8H13.4991V0H11.6991V1.8H6.29911V0H4.49911V1.8H2.69911C1.70641 1.8 0.899109 2.6073 0.899109 3.6ZM15.3009 16.2H2.69911V5.4H15.2991L15.3009 16.2Z" fill="#435971"/>
<path fill-rule="evenodd" clip-rule="evenodd" d="M0.899109 3.6V5.4V16.2C0.899109 17.1927 1.70641 18 2.69911 18H15.2991C16.2918 18 17.0991 17.1927 17.0991 16.2V5.4V3.6C17.0991 2.6073 16.2918 1.8 15.2991 1.8H13.4991V0H11.6991V1.8H6.29911V0H4.49911V1.8H2.69911C1.70641 1.8 0.899109 2.6073 0.899109 3.6ZM15.3009 16.2H2.69911V5.4H15.2991L15.3009 16.2Z" fill="white" fill-opacity="0.4"/>
</svg>
