<svg width="18" height="18" viewBox="0 0 18 18" fill="none" xmlns="http://www.w3.org/2000/svg">
<path fill-rule="evenodd" clip-rule="evenodd" d="M16.2 0H7.2C6.2073 0 5.4 0.8073 5.4 1.8V5.4H1.8C0.8073 5.4 0 6.2073 0 7.2V16.2C0 17.1927 0.8073 18 1.8 18H10.8C11.7927 18 12.6 17.1927 12.6 16.2V12.6H16.2C17.1927 12.6 18 11.7927 18 10.8V1.8C18 0.8073 17.1927 0 16.2 0ZM1.8 16.2V7.2H10.8L10.8018 16.2H1.8ZM16.2 10.8H12.6V7.2C12.6 6.2073 11.7927 5.4 10.8 5.4H7.2V1.8H16.2V10.8Z" fill="#435971"/>
<path fill-rule="evenodd" clip-rule="evenodd" d="M16.2 0H7.2C6.2073 0 5.4 0.8073 5.4 1.8V5.4H1.8C0.8073 5.4 0 6.2073 0 7.2V16.2C0 17.1927 0.8073 18 1.8 18H10.8C11.7927 18 12.6 17.1927 12.6 16.2V12.6H16.2C17.1927 12.6 18 11.7927 18 10.8V1.8C18 0.8073 17.1927 0 16.2 0ZM1.8 16.2V7.2H10.8L10.8018 16.2H1.8ZM16.2 10.8H12.6V7.2C12.6 6.2073 11.7927 5.4 10.8 5.4H7.2V1.8H16.2V10.8Z" fill="white" fill-opacity="0.4"/>
</svg>
