<svg width="18" height="18" viewBox="0 0 18 18" fill="none" xmlns="http://www.w3.org/2000/svg">
<path fill-rule="evenodd" clip-rule="evenodd" d="M18 3C18 1.346 16.654 0 15 0C13.698 0 12.599 0.838 12.185 2H5.815C5.401 0.838 4.302 0 3 0C1.346 0 0 1.346 0 3C0 4.302 0.839 5.401 2 5.815V12.184C0.839 12.599 0 13.698 0 15C0 16.654 1.346 18 3 18C4.302 18 5.401 17.162 5.815 16H12.184C12.598 17.162 13.698 18 14.999 18C16.653 18 17.999 16.654 17.999 15C17.999 13.698 17.16 12.599 15.999 12.184V5.816C17.161 5.401 18 4.302 18 3ZM15 2C15.552 2 16 2.449 16 3C16 3.551 15.552 4 15 4C14.448 4 14 3.551 14 3C14 2.449 14.448 2 15 2ZM12.185 14H5.815C5.514 13.153 4.848 12.486 4 12.184V5.816C4.848 5.514 5.514 4.847 5.815 4H12.184C12.486 4.847 13.152 5.514 14 5.815V12.184C13.152 12.486 12.486 13.153 12.185 14ZM3 2C3.552 2 4 2.449 4 3C4 3.551 3.552 4 3 4C2.448 4 2 3.551 2 3C2 2.449 2.448 2 3 2ZM3 16C2.448 16 2 15.551 2 15C2 14.449 2.448 14 3 14C3.552 14 4 14.449 4 15C4 15.551 3.552 16 3 16ZM15 16C14.448 16 14 15.551 14 15C14 14.449 14.448 14 15 14C15.552 14 16 14.449 16 15C16 15.551 15.552 16 15 16Z" fill="#435971"/>
<path fill-rule="evenodd" clip-rule="evenodd" d="M18 3C18 1.346 16.654 0 15 0C13.698 0 12.599 0.838 12.185 2H5.815C5.401 0.838 4.302 0 3 0C1.346 0 0 1.346 0 3C0 4.302 0.839 5.401 2 5.815V12.184C0.839 12.599 0 13.698 0 15C0 16.654 1.346 18 3 18C4.302 18 5.401 17.162 5.815 16H12.184C12.598 17.162 13.698 18 14.999 18C16.653 18 17.999 16.654 17.999 15C17.999 13.698 17.16 12.599 15.999 12.184V5.816C17.161 5.401 18 4.302 18 3ZM15 2C15.552 2 16 2.449 16 3C16 3.551 15.552 4 15 4C14.448 4 14 3.551 14 3C14 2.449 14.448 2 15 2ZM12.185 14H5.815C5.514 13.153 4.848 12.486 4 12.184V5.816C4.848 5.514 5.514 4.847 5.815 4H12.184C12.486 4.847 13.152 5.514 14 5.815V12.184C13.152 12.486 12.486 13.153 12.185 14ZM3 2C3.552 2 4 2.449 4 3C4 3.551 3.552 4 3 4C2.448 4 2 3.551 2 3C2 2.449 2.448 2 3 2ZM3 16C2.448 16 2 15.551 2 15C2 14.449 2.448 14 3 14C3.552 14 4 14.449 4 15C4 15.551 3.552 16 3 16ZM15 16C14.448 16 14 15.551 14 15C14 14.449 14.448 14 15 14C15.552 14 16 14.449 16 15C16 15.551 15.552 16 15 16Z" fill="white" fill-opacity="0.4"/>
</svg>
