<svg width="18" height="18" viewBox="0 0 18 18" fill="none" xmlns="http://www.w3.org/2000/svg">
<path fill-rule="evenodd" clip-rule="evenodd" d="M17.4654 3.67758L9.3654 0.077624C9.1314 -0.0258747 8.8677 -0.0258747 8.6337 0.077624L0.5337 3.67758C0.5157 3.68568 0.5031 3.69918 0.4851 3.70908C0.4599 3.72168 0.4329 3.72978 0.4095 3.74508C0.3897 3.75858 0.3744 3.77568 0.3555 3.79008C0.3303 3.80898 0.306 3.82968 0.2835 3.85128C0.2466 3.88638 0.2142 3.92418 0.1845 3.96468C0.1665 3.98988 0.1476 4.01238 0.1314 4.03757C0.1035 4.08527 0.0828 4.13477 0.063 4.18607C0.0549 4.21037 0.0423 4.23287 0.0351 4.25717C0.0135 4.33547 0 4.41647 0 4.50017V13.5001C0 13.8565 0.2088 14.1777 0.5346 14.3226L8.6346 17.9226C8.7516 17.9748 8.8758 18 9 18C9.1251 18 9.2457 17.9649 9.3618 17.9136L9.3654 17.9226L17.4654 14.3226C17.7912 14.1777 18 13.8565 18 13.5001V4.50017C18 4.14377 17.7912 3.82248 17.4654 3.67758ZM9 1.8857L14.8842 4.50017L9 7.11464L7.8228 6.59174L3.1167 4.50017L9 1.8857ZM1.8 12.916V5.88525L8.1 8.68512V15.7149L1.8 12.916ZM9.9 15.7149V8.68512L16.2 5.88525V12.916L9.9 15.7149Z" fill="#435971"/>
<path fill-rule="evenodd" clip-rule="evenodd" d="M17.4654 3.67758L9.3654 0.077624C9.1314 -0.0258747 8.8677 -0.0258747 8.6337 0.077624L0.5337 3.67758C0.5157 3.68568 0.5031 3.69918 0.4851 3.70908C0.4599 3.72168 0.4329 3.72978 0.4095 3.74508C0.3897 3.75858 0.3744 3.77568 0.3555 3.79008C0.3303 3.80898 0.306 3.82968 0.2835 3.85128C0.2466 3.88638 0.2142 3.92418 0.1845 3.96468C0.1665 3.98988 0.1476 4.01238 0.1314 4.03757C0.1035 4.08527 0.0828 4.13477 0.063 4.18607C0.0549 4.21037 0.0423 4.23287 0.0351 4.25717C0.0135 4.33547 0 4.41647 0 4.50017V13.5001C0 13.8565 0.2088 14.1777 0.5346 14.3226L8.6346 17.9226C8.7516 17.9748 8.8758 18 9 18C9.1251 18 9.2457 17.9649 9.3618 17.9136L9.3654 17.9226L17.4654 14.3226C17.7912 14.1777 18 13.8565 18 13.5001V4.50017C18 4.14377 17.7912 3.82248 17.4654 3.67758ZM9 1.8857L14.8842 4.50017L9 7.11464L7.8228 6.59174L3.1167 4.50017L9 1.8857ZM1.8 12.916V5.88525L8.1 8.68512V15.7149L1.8 12.916ZM9.9 15.7149V8.68512L16.2 5.88525V12.916L9.9 15.7149Z" fill="white" fill-opacity="0.4"/>
</svg>
