<svg width="18" height="14" viewBox="0 0 18 14" fill="none" xmlns="http://www.w3.org/2000/svg">
<path fill-rule="evenodd" clip-rule="evenodd" d="M0 0.571411H11.6471V2.68906H0V0.571411ZM0 4.80671H11.6471V6.92435H0V4.80671ZM0 9.042H7.41176V11.1596H0V9.042ZM16.1989 6.17471L11.646 10.7181L10.278 9.35118L8.78082 10.8494L11.646 13.7125L17.694 7.674L16.1989 6.17471Z" fill="#435971"/>
<path fill-rule="evenodd" clip-rule="evenodd" d="M0 0.571411H11.6471V2.68906H0V0.571411ZM0 4.80671H11.6471V6.92435H0V4.80671ZM0 9.042H7.41176V11.1596H0V9.042ZM16.1989 6.17471L11.646 10.7181L10.278 9.35118L8.78082 10.8494L11.646 13.7125L17.694 7.674L16.1989 6.17471Z" fill="white" fill-opacity="0.4"/>
</svg>
