<svg width="18" height="17" viewBox="0 0 18 17" fill="none" xmlns="http://www.w3.org/2000/svg">
<path fill-rule="evenodd" clip-rule="evenodd" d="M1.8 16.4857H16.1037C17.0964 16.4857 17.9037 15.6784 17.9037 14.6857V3.88571V2.08571V2.08571V2.08571C17.9037 1.09301 17.0964 0.285706 16.1037 0.285706H1.8C0.8073 0.285706 0 1.09301 0 2.08571V14.6857C0 15.6784 0.8073 16.4857 1.8 16.4857ZM1.8 14.6857V10.1857H5.4V14.6857H1.8ZM10.8 3.88571V8.38571H7.2V3.88571H10.8ZM5.4 3.88571V8.38571H1.8V3.88571H5.4ZM7.2 14.6857V10.1857H10.8V14.6857H7.2ZM12.6 14.6857V10.1857H16.1046V14.6857H12.6ZM16.1037 8.38571H12.6V3.88571H16.1037V8.38571Z" fill="#435971"/>
<path fill-rule="evenodd" clip-rule="evenodd" d="M1.8 16.4857H16.1037C17.0964 16.4857 17.9037 15.6784 17.9037 14.6857V3.88571V2.08571V2.08571V2.08571C17.9037 1.09301 17.0964 0.285706 16.1037 0.285706H1.8C0.8073 0.285706 0 1.09301 0 2.08571V14.6857C0 15.6784 0.8073 16.4857 1.8 16.4857ZM1.8 14.6857V10.1857H5.4V14.6857H1.8ZM10.8 3.88571V8.38571H7.2V3.88571H10.8ZM5.4 3.88571V8.38571H1.8V3.88571H5.4ZM7.2 14.6857V10.1857H10.8V14.6857H7.2ZM12.6 14.6857V10.1857H16.1046V14.6857H12.6ZM16.1037 8.38571H12.6V3.88571H16.1037V8.38571Z" fill="white" fill-opacity="0.4"/>
</svg>
