<svg width="18" height="17" viewBox="0 0 18 17" fill="none" xmlns="http://www.w3.org/2000/svg">
<path fill-rule="evenodd" clip-rule="evenodd" d="M16.2 1.8H8.4726L6.9363 0.2637C6.768 0.0945 6.5385 0 6.3 0H1.8C0.8073 0 0 0.8073 0 1.8V14.4C0 15.3927 0.8073 16.2 1.8 16.2H16.2C17.1927 16.2 18 15.3927 18 14.4V3.6C18 2.6073 17.1927 1.8 16.2 1.8ZM1.8 14.4V3.6H8.1H9H16.2L16.2018 14.4H1.8Z" fill="#435971"/>
<path fill-rule="evenodd" clip-rule="evenodd" d="M16.2 1.8H8.4726L6.9363 0.2637C6.768 0.0945 6.5385 0 6.3 0H1.8C0.8073 0 0 0.8073 0 1.8V14.4C0 15.3927 0.8073 16.2 1.8 16.2H16.2C17.1927 16.2 18 15.3927 18 14.4V3.6C18 2.6073 17.1927 1.8 16.2 1.8ZM1.8 14.4V3.6H8.1H9H16.2L16.2018 14.4H1.8Z" fill="white" fill-opacity="0.4"/>
</svg>
