<svg width="18" height="18" viewBox="0 0 18 18" fill="none" xmlns="http://www.w3.org/2000/svg">
<path fill-rule="evenodd" clip-rule="evenodd" d="M16 0H2C0.897 0 0 0.897 0 2V16C0 17.103 0.897 18 2 18H16C17.103 18 18 17.103 18 16V2C18 0.897 17.103 0 16 0ZM16 2V5H2V2H16ZM2 16V7H16.001L16.002 16H2Z" fill="#435971"/>
<path fill-rule="evenodd" clip-rule="evenodd" d="M16 0H2C0.897 0 0 0.897 0 2V16C0 17.103 0.897 18 2 18H16C17.103 18 18 17.103 18 16V2C18 0.897 17.103 0 16 0ZM16 2V5H2V2H16ZM2 16V7H16.001L16.002 16H2Z" fill="white" fill-opacity="0.4"/>
</svg>
