<svg width="17" height="12" viewBox="0 0 17 12" fill="none" xmlns="http://www.w3.org/2000/svg">
<path fill-rule="evenodd" clip-rule="evenodd" d="M6.375 0.642883H10.625V4.89288H6.375V0.642883ZM12.75 0.642883H17V4.89288H12.75V0.642883ZM0 0.642883H4.25V4.89288H0V0.642883ZM6.375 7.01788H10.625V11.2679H6.375V7.01788ZM12.75 7.01788H17V11.2679H12.75V7.01788ZM0 7.01788H4.25V11.2679H0V7.01788Z" fill="#435971"/>
<path fill-rule="evenodd" clip-rule="evenodd" d="M6.375 0.642883H10.625V4.89288H6.375V0.642883ZM12.75 0.642883H17V4.89288H12.75V0.642883ZM0 0.642883H4.25V4.89288H0V0.642883ZM6.375 7.01788H10.625V11.2679H6.375V7.01788ZM12.75 7.01788H17V11.2679H12.75V7.01788ZM0 7.01788H4.25V11.2679H0V7.01788Z" fill="white" fill-opacity="0.4"/>
</svg>
