<svg width="30" height="30" viewBox="0 0 30 30" fill="none" xmlns="http://www.w3.org/2000/svg">
<circle opacity="0.16" cx="15" cy="15" r="15" fill="#FFAB00"/>
<path fill-rule="evenodd" clip-rule="evenodd" d="M15.6 8H14.2C11.8837 8 10 9.8837 10 12.2V17.8C10 20.1163 11.8837 22 14.2 22H15.6C17.9163 22 19.8 20.1163 19.8 17.8V15V13.6V12.2C19.8 9.8837 17.9163 8 15.6 8ZM14.2 9.4V13.6H11.4V12.2C11.4 10.6558 12.6558 9.4 14.2 9.4ZM18.4 17.8C18.4 19.3442 17.1442 20.6 15.6 20.6H14.2C12.6558 20.6 11.4 19.3442 11.4 17.8V15H18.4V17.8ZM15.6 13.6V9.4C17.1442 9.4 18.4 10.6558 18.4 12.2V13.6H15.6Z" fill="#FFAB00"/>
</svg>
