<svg width="45" height="46" viewBox="0 0 45 46" fill="none" xmlns="http://www.w3.org/2000/svg">
<g clip-path="url(#clip0_0_724)">
<circle opacity="0.16" cx="22.5" cy="22.6707" r="22.5" fill="#696CFF"/>
<path fill-rule="evenodd" clip-rule="evenodd" d="M25.8563 20.0207H27.6563C27.6563 17.4674 25.1768 16.3028 23.1563 16.0346V14.1707H21.3563V16.0346C19.3358 16.3028 16.8563 17.4674 16.8563 20.0207C16.8563 22.4561 19.2557 23.7224 21.3563 24.0077V28.4807C20.0531 28.2548 18.6563 27.5591 18.6563 26.3207H16.8563C16.8563 28.6508 19.0388 30.0278 21.3563 30.3131V31.2698V32.1707H23.1563V31.2698V30.3077C25.1768 30.0395 27.6563 28.874 27.6563 26.3207C27.6563 23.7674 25.1768 22.6028 23.1563 22.3346V17.8607C24.3533 18.0758 25.8563 18.7076 25.8563 20.0207ZM18.6563 20.0207C18.6563 18.7076 20.1593 18.0758 21.3563 17.8607V22.1798C20.1224 21.9521 18.6563 21.278 18.6563 20.0207ZM25.8563 26.3207C25.8563 27.6338 24.3533 28.2656 23.1563 28.4807V24.1607C24.3533 24.3758 25.8563 25.0076 25.8563 26.3207Z" fill="#696CFF"/>
</g>
<defs>
<clipPath id="clip0_0_724">
<rect width="45" height="45" fill="white" transform="translate(0 0.170654)"/>
</clipPath>
</defs>
</svg>
