<svg width="30" height="30" viewBox="0 0 30 30" fill="none" xmlns="http://www.w3.org/2000/svg">
<circle opacity="0.16" cx="15" cy="15" r="15" fill="#696CFF"/>
<path fill-rule="evenodd" clip-rule="evenodd" d="M11.425 8H18.425C19.1971 8 19.825 8.6279 19.825 9.4V20.6C19.825 21.3721 19.1971 22 18.425 22H11.425C10.6529 22 10.025 21.3721 10.025 20.6V9.4C10.025 8.6279 10.6529 8 11.425 8ZM11.425 9.4V20.6H18.4264L18.425 9.4H11.425ZM14.925 19.9C15.3116 19.9 15.625 19.5866 15.625 19.2C15.625 18.8134 15.3116 18.5 14.925 18.5C14.5384 18.5 14.225 18.8134 14.225 19.2C14.225 19.5866 14.5384 19.9 14.925 19.9Z" fill="#696CFF"/>
</svg>
