<svg width="18" height="17" viewBox="0 0 18 17" fill="none" xmlns="http://www.w3.org/2000/svg">
<path fill-rule="evenodd" clip-rule="evenodd" d="M16.2 0.928574H1.8C0.8073 0.928574 0 1.73587 0 2.72857V13.5286C0 14.5213 0.8073 15.3286 1.8 15.3286H16.2C17.1927 15.3286 18 14.5213 18 13.5286V2.72857C18 1.73587 17.1927 0.928574 16.2 0.928574ZM16.2 2.72857V3.18847L9 8.78917L1.8 3.18937V2.72857H16.2ZM1.8 13.5286V5.46817L8.4474 10.6387C8.6094 10.7656 8.8047 10.8286 9 10.8286C9.1953 10.8286 9.3906 10.7656 9.5526 10.6387L16.2 5.46817L16.2018 13.5286H1.8Z" fill="#435971"/>
<path fill-rule="evenodd" clip-rule="evenodd" d="M16.2 0.928574H1.8C0.8073 0.928574 0 1.73587 0 2.72857V13.5286C0 14.5213 0.8073 15.3286 1.8 15.3286H16.2C17.1927 15.3286 18 14.5213 18 13.5286V2.72857C18 1.73587 17.1927 0.928574 16.2 0.928574ZM16.2 2.72857V3.18847L9 8.78917L1.8 3.18937V2.72857H16.2ZM1.8 13.5286V5.46817L8.4474 10.6387C8.6094 10.7656 8.8047 10.8286 9 10.8286C9.1953 10.8286 9.3906 10.7656 9.5526 10.6387L16.2 5.46817L16.2018 13.5286H1.8Z" fill="white" fill-opacity="0.4"/>
</svg>
