<svg width="98" height="157" viewBox="0 0 98 157" fill="none" xmlns="http://www.w3.org/2000/svg">
<path fill-rule="evenodd" clip-rule="evenodd" d="M77.6363 23.3853C77.5577 25.3224 77.405 27.2268 77.1833 29.088C77.1556 29.3367 77.1225 29.5827 77.0925 29.8288C77.066 30.0093 77.0448 30.1847 77.0209 30.3627C76.9493 30.8782 76.8732 31.3884 76.7891 31.8958C76.7536 32.1286 76.7161 32.3562 76.6758 32.5863C76.6 33.0467 76.5141 33.5042 76.426 33.9565C76.3854 34.184 76.3402 34.4114 76.2919 34.6362C76.2208 34.9891 76.1472 35.3419 76.0713 35.6894C76.0712 35.6947 76.071 35.7026 76.0655 35.7103C76.0035 36.003 75.9358 36.2983 75.8684 36.5909L75.8067 36.8521C75.7508 37.082 75.6952 37.3066 75.6368 37.5312C75.603 37.6827 75.5637 37.8342 75.525 37.983C75.5083 38.0483 75.4913 38.1136 75.4721 38.1762C75.4053 38.4479 75.3328 38.7168 75.2583 38.9857C74.912 40.2388 74.5324 41.4598 74.1223 42.6488C74.0234 42.9461 73.9173 43.2407 73.808 43.5352C73.7127 43.8037 73.612 44.0747 73.5113 44.3405C73.5 44.3771 73.4841 44.4083 73.4732 44.4422C73.3726 44.7027 73.272 44.9607 73.1663 45.2185C73.1553 45.2498 73.1445 45.2785 73.1336 45.3071C73.0442 45.5207 72.9571 45.7369 72.8677 45.9504C72.8191 46.0729 72.7674 46.1926 72.7134 46.3123C72.6538 46.4582 72.5918 46.604 72.527 46.7472C72.4781 46.8696 72.424 46.9946 72.3648 47.1168C72.2674 47.3381 72.17 47.5541 72.0675 47.7727C71.9518 48.0225 71.8384 48.2723 71.7196 48.5168C71.5984 48.7718 71.4746 49.0214 71.3486 49.2684C71.2595 49.4479 71.1684 49.6273 71.0744 49.804C71.0341 49.882 70.991 49.9573 70.9536 50.0354L70.9535 50.038C70.6072 50.693 70.2558 51.3295 69.8893 51.9501C69.7769 52.1448 69.662 52.3317 69.55 52.5186C69.5019 52.5991 69.4509 52.6795 69.3975 52.7625C69.2878 52.9468 69.1731 53.1258 69.0586 53.3048C68.9492 53.4761 68.8396 53.6447 68.7331 53.8107C68.5785 54.0414 68.4265 54.2696 68.2695 54.4951C68.2481 54.5262 68.2268 54.5599 68.2029 54.591C68.0697 54.7828 67.9366 54.9772 67.8009 55.1637C67.665 55.3528 67.5293 55.5393 67.3885 55.7231C67.3673 55.7516 67.3433 55.7853 67.3194 55.8137C67.1602 56.0313 66.9956 56.2409 66.8333 56.4505L66.8309 56.4531C62.8964 61.4471 58.1399 64.7794 52.9719 65.7988L52.6661 83.3188L45.3554 83.1912L45.6612 65.6712C40.5348 64.4721 35.8921 60.9758 32.1371 55.8449C30.7021 53.884 29.3983 51.6918 28.2435 49.2925C26.0486 44.7423 24.3966 39.4619 23.443 33.7137C23.1398 31.8984 22.9047 30.0371 22.746 28.1378C22.5891 26.27 22.503 24.3615 22.4948 22.4228C22.4878 21.5151 23.2272 20.7804 24.1251 20.796L76.0633 21.7026C76.9587 21.7183 77.6722 22.4783 77.6363 23.3853Z" fill="#FFAB00"/>
<path fill-rule="evenodd" clip-rule="evenodd" d="M77.6363 23.3853C77.5577 25.3224 77.405 27.2268 77.1833 29.088C77.1556 29.3367 77.1225 29.5827 77.0925 29.8288C77.066 30.0093 77.0448 30.1847 77.0209 30.3627C76.9493 30.8782 76.8732 31.3884 76.7891 31.8958C76.7536 32.1286 76.7161 32.3562 76.6758 32.5863C76.6 33.0467 76.5141 33.5042 76.426 33.9565C76.3854 34.184 76.3402 34.4114 76.2919 34.6362C76.2208 34.9891 76.1472 35.3419 76.0713 35.6894C76.0712 35.6947 76.071 35.7026 76.0655 35.7103C76.0035 36.003 75.9358 36.2983 75.8684 36.5909L75.8067 36.8521C75.7508 37.082 75.6952 37.3066 75.6368 37.5312C75.603 37.6827 75.5637 37.8342 75.525 37.983C75.5083 38.0483 75.4913 38.1136 75.4721 38.1762C75.4053 38.4479 75.3328 38.7168 75.2583 38.9857C74.912 40.2388 74.5324 41.4598 74.1223 42.6488C74.0234 42.9461 73.9173 43.2407 73.808 43.5352C73.7127 43.8037 73.612 44.0747 73.5113 44.3405C73.5 44.3771 73.4841 44.4083 73.4732 44.4422C73.3726 44.7027 73.272 44.9607 73.1663 45.2185C73.1553 45.2498 73.1445 45.2785 73.1336 45.3071C73.0442 45.5207 72.9571 45.7369 72.8677 45.9504C72.8191 46.0729 72.7674 46.1926 72.7134 46.3123C72.6538 46.4582 72.5918 46.604 72.527 46.7472C72.4781 46.8696 72.424 46.9946 72.3648 47.1168C72.2674 47.3381 72.17 47.5541 72.0675 47.7727C71.9518 48.0225 71.8384 48.2723 71.7196 48.5168C71.5984 48.7718 71.4746 49.0214 71.3486 49.2684C71.2595 49.4479 71.1684 49.6273 71.0744 49.804C71.0341 49.882 70.991 49.9573 70.9536 50.0354L70.9535 50.038C70.6072 50.693 70.2558 51.3295 69.8893 51.9501C69.7769 52.1448 69.662 52.3317 69.55 52.5186C69.5019 52.5991 69.4509 52.6795 69.3975 52.7625C69.2878 52.9468 69.1731 53.1258 69.0586 53.3048C68.9492 53.4761 68.8396 53.6447 68.7331 53.8107C68.5785 54.0414 68.4265 54.2696 68.2695 54.4951C68.2481 54.5262 68.2268 54.5599 68.2029 54.591C68.0697 54.7828 67.9366 54.9772 67.8009 55.1637C67.665 55.3528 67.5293 55.5393 67.3885 55.7231C67.3673 55.7516 67.3433 55.7853 67.3194 55.8137C67.1602 56.0313 66.9956 56.2409 66.8333 56.4505L66.8309 56.4531C62.8964 61.4471 58.1399 64.7794 52.9719 65.7988L52.6661 83.3188L45.3554 83.1912L45.6612 65.6712C40.5348 64.4721 35.8921 60.9758 32.1371 55.8449C30.7021 53.884 29.3983 51.6918 28.2435 49.2925C26.0486 44.7423 24.3966 39.4619 23.443 33.7137C23.1398 31.8984 22.9047 30.0371 22.746 28.1378C22.5891 26.27 22.503 24.3615 22.4948 22.4228C22.4878 21.5151 23.2272 20.7804 24.1251 20.796L76.0633 21.7026C76.9587 21.7183 77.6722 22.4783 77.6363 23.3853Z" fill="white" fill-opacity="0.4"/>
<path fill-rule="evenodd" clip-rule="evenodd" d="M76.1041 21.0478C77.2798 21.0914 78.3113 22.1388 78.2852 23.3819C78.2123 25.5387 78.0137 27.6952 77.7477 29.8179L77.6816 30.3154C77.4425 32.1302 77.1133 33.931 76.7336 35.6984C76.7336 35.6984 76.4134 37.0875 76.2265 37.8589C75.6445 40.2096 74.9443 42.3578 74.1224 44.5608C74.111 44.5921 74.0987 44.6233 74.087 44.6546C73.9473 45.0283 73.736 45.5508 73.736 45.5508C73.0359 47.2308 72.4297 48.6493 71.6147 50.1733C71.451 50.4798 71.417 50.5516 71.3282 50.7174C70.9255 51.4642 70.5059 52.2016 70.0642 52.9252C69.9528 53.1048 70.0231 52.9875 69.8657 53.2455C69.6162 53.6488 69.2737 54.1729 69.2737 54.1729C65.5979 59.6623 60.2526 64.8189 53.6116 66.3331L53.3149 83.3301C53.2597 83.8606 53.1368 83.9403 52.6546 83.9744L45.344 83.8468C44.8191 83.7912 44.7402 83.6671 44.7067 83.1799L45.0034 66.1825C44.9052 66.1567 44.8073 66.1298 44.7096 66.1024C36.4336 63.7545 30.2913 55.9425 26.6586 47.3654C23.3392 39.5287 21.8611 30.9158 21.8465 22.3986C21.8594 21.2132 22.8926 20.1429 24.1073 20.1402C41.441 20.3329 58.7742 20.6349 76.1041 21.0478ZM24.1158 21.4517C23.6097 21.446 23.1497 21.8886 23.1441 22.4045C23.1651 34.4821 25.9939 47.0765 33.449 56.4929C36.6314 60.5126 40.8354 63.8604 45.809 65.0327C45.809 65.0327 46.2747 65.1518 46.31 65.6825L46.0157 82.5469L52.0288 82.6519L52.3231 65.7875C52.4002 65.0297 52.8772 65.1582 53.4297 65.0298C58.7907 63.7688 63.3627 59.9823 66.6829 55.5783C68.0637 53.7468 69.295 51.7781 70.369 49.7521C70.4949 49.439 70.5428 49.4186 70.6035 49.3013C71.0028 48.5232 71.38 47.7329 71.7359 46.9319C71.7359 46.9319 72.1278 46.0314 72.5312 45.0634C72.6289 44.8044 72.6328 44.8055 72.6811 44.6841C73.6248 42.298 74.297 40.211 74.8467 38.0008C75.1082 37.1335 75.2522 36.4099 75.4311 35.572C75.4311 35.572 75.6793 34.4379 75.7885 33.8347C76.4387 30.481 76.8198 27.0847 76.9723 23.7184C77.002 23.0576 76.7002 22.3821 76.0644 22.3584C58.7505 21.946 41.4321 21.7539 24.1158 21.4517ZM75.5006 35.386L75.4674 35.457C75.4674 35.457 75.5561 35.2985 75.5006 35.386Z" fill="#FFAB00"/>
<path fill-rule="evenodd" clip-rule="evenodd" d="M64.2393 90.8604L33.5263 90.3243C33.5617 88.2972 34.406 86.4781 35.7449 85.1718C37.0812 83.8676 38.9095 83.0787 40.9155 83.1137L57.1063 83.3963C61.1157 83.4663 64.3101 86.8063 64.2393 90.8604Z" fill="#FFAB00"/>
<path fill-rule="evenodd" clip-rule="evenodd" d="M64.2393 90.8604L33.5263 90.3243C33.5617 88.2972 34.406 86.4781 35.7449 85.1718C37.0812 83.8676 38.9095 83.0787 40.9155 83.1137L57.1063 83.3963C61.1157 83.4663 64.3101 86.8063 64.2393 90.8604Z" fill="white" fill-opacity="0.4"/>
<path fill-rule="evenodd" clip-rule="evenodd" d="M57.1689 82.7419C61.2441 82.8518 64.9243 86.4353 64.8887 90.8201C64.8887 90.8201 64.7724 91.4893 64.2279 91.516L33.5149 90.9799C32.6862 90.9104 32.8471 89.414 33.1882 88.2246C34.1366 84.9158 37.341 82.4294 40.8758 82.4575C46.3072 82.5352 51.7382 82.63 57.1689 82.7419ZM40.9051 83.7693C37.6743 83.7229 34.6295 86.2842 34.2213 89.6521L63.5706 90.193C63.5666 90.1412 63.5618 90.0895 63.5567 90.038C63.2229 86.8515 60.4199 84.1414 57.1377 84.0529C51.7272 83.9417 46.3159 83.8638 40.9051 83.7693Z" fill="#FFAB00"/>
<path fill-rule="evenodd" clip-rule="evenodd" d="M71.2326 100.632L26.1997 99.8457L26.2535 96.7618C26.3168 93.1375 29.2756 90.2501 32.8623 90.3127L64.9068 90.8721C68.4934 90.9347 71.3497 93.9235 71.2864 97.5479L71.2326 100.632Z" fill="#FFAB00"/>
<path fill-rule="evenodd" clip-rule="evenodd" d="M71.2326 100.632L26.1997 99.8457L26.2535 96.7618C26.3168 93.1375 29.2756 90.2501 32.8623 90.3127L64.9068 90.8721C68.4934 90.9347 71.3497 93.9235 71.2864 97.5479L71.2326 100.632Z" fill="white" fill-opacity="0.4"/>
<path fill-rule="evenodd" clip-rule="evenodd" d="M64.9644 90.2175C68.6771 90.3186 71.9918 93.6603 71.9352 97.5582L71.8814 100.643C71.8318 101.162 71.7022 101.257 71.2212 101.287L26.1882 100.501C25.6748 100.451 25.5803 100.32 25.5509 99.8344C25.584 97.9382 25.4201 96.039 26.0659 94.3174C27.0869 91.5964 29.814 89.6515 32.7816 89.6561C43.5105 89.7389 54.2374 89.9962 64.9644 90.2175ZM32.8519 90.9683C29.8001 90.9248 26.9681 93.568 26.9022 96.7742L26.8599 99.2015L70.5953 99.9649C70.6219 98.4405 70.7946 96.9168 70.3302 95.5334C69.5694 93.2681 67.3706 91.5947 64.9332 91.5283C54.2399 91.3078 43.5457 91.155 32.8519 90.9683Z" fill="#FFAB00"/>
<path fill-rule="evenodd" clip-rule="evenodd" d="M74.9247 116.919L21.9391 115.994C21.3433 115.983 20.8689 115.487 20.8794 114.885L21.0859 103.053C21.1462 99.597 23.968 96.8434 27.3883 96.9031L70.1451 97.6494C73.5654 97.7091 76.2891 100.56 76.2288 104.016L76.0223 115.847C76.0118 116.449 75.5203 116.929 74.9247 116.919Z" fill="#8592A3"/>
<path fill-rule="evenodd" clip-rule="evenodd" d="M74.9247 116.919L21.9391 115.994C21.3433 115.983 20.8689 115.487 20.8794 114.885L21.0859 103.053C21.1462 99.597 23.968 96.8434 27.3883 96.9031L70.1451 97.6494C73.5654 97.7091 76.2891 100.56 76.2288 104.016L76.0223 115.847C76.0118 116.449 75.5203 116.929 74.9247 116.919Z" fill="black" fill-opacity="0.1"/>
<path fill-rule="evenodd" clip-rule="evenodd" d="M70.2006 96.9949C73.7322 97.0901 76.909 100.2 76.8781 103.983C76.8216 107.943 76.7401 111.903 76.6709 115.863C76.6439 116.771 75.873 117.555 74.9574 117.574C57.277 117.487 39.6015 116.958 21.9237 116.649C21.0255 116.622 20.2489 115.843 20.2303 114.918C20.2496 110.929 20.3324 106.94 20.4392 102.953C20.5573 99.3971 23.6254 96.2414 27.3115 96.2465C41.6097 96.3599 55.9051 96.6986 70.2006 96.9949ZM27.3779 97.5587C24.4925 97.5178 21.8175 99.9649 21.7353 103.028C21.6537 106.988 21.5472 110.947 21.5282 114.908C21.5326 115.131 21.7179 115.325 21.9391 115.338C39.6034 115.867 57.2755 116.176 74.9476 116.263C75.1678 116.258 75.3608 116.072 75.373 115.848C75.4911 111.877 75.5485 107.904 75.5807 103.932C75.5857 101.046 73.165 98.3865 70.1697 98.3056C55.9066 98.0102 41.6418 97.8077 27.3779 97.5587Z" fill="#8592A3"/>
<path fill-rule="evenodd" clip-rule="evenodd" d="M70.2006 96.9949C73.7322 97.0901 76.909 100.2 76.8781 103.983C76.8216 107.943 76.7401 111.903 76.6709 115.863C76.6439 116.771 75.873 117.555 74.9574 117.574C57.277 117.487 39.6015 116.958 21.9237 116.649C21.0255 116.622 20.2489 115.843 20.2303 114.918C20.2496 110.929 20.3324 106.94 20.4392 102.953C20.5573 99.3971 23.6254 96.2414 27.3115 96.2465C41.6097 96.3599 55.9051 96.6986 70.2006 96.9949ZM27.3779 97.5587C24.4925 97.5178 21.8175 99.9649 21.7353 103.028C21.6537 106.988 21.5472 110.947 21.5282 114.908C21.5326 115.131 21.7179 115.325 21.9391 115.338C39.6034 115.867 57.2755 116.176 74.9476 116.263C75.1678 116.258 75.3608 116.072 75.373 115.848C75.4911 111.877 75.5485 107.904 75.5807 103.932C75.5857 101.046 73.165 98.3865 70.1697 98.3056C55.9066 98.0102 41.6418 97.8077 27.3779 97.5587Z" fill="black" fill-opacity="0.2"/>
<path fill-rule="evenodd" clip-rule="evenodd" d="M10.9516 27.9314L22.7471 28.1373C22.9063 30.0379 23.1394 31.8987 23.4438 33.7142L10.4333 33.4871C10.3062 33.4849 10.2013 33.5901 10.2044 33.7216C10.2521 35.6449 11.7095 48.7311 28.2424 49.2935C29.3986 51.6908 30.7018 53.8853 32.1367 55.8438C11.5639 56.1334 5.4626 42.0009 3.61974 33.2738C3.02654 30.465 5.18013 27.8307 8.02227 27.8803L10.9516 27.9314Z" fill="#FFAB00"/>
<path fill-rule="evenodd" clip-rule="evenodd" d="M10.9516 27.9314L22.7471 28.1373C22.9063 30.0379 23.1394 31.8987 23.4438 33.7142L10.4333 33.4871C10.3062 33.4849 10.2013 33.5901 10.2044 33.7216C10.2521 35.6449 11.7095 48.7311 28.2424 49.2935C29.3986 51.6908 30.7018 53.8853 32.1367 55.8438C11.5639 56.1334 5.4626 42.0009 3.61974 33.2738C3.02654 30.465 5.18013 27.8307 8.02227 27.8803L10.9516 27.9314Z" fill="white" fill-opacity="0.4"/>
<path fill-rule="evenodd" clip-rule="evenodd" d="M22.8446 27.489C23.6009 27.6577 23.4037 28.2065 23.44 28.6103C23.5844 30.1696 23.7795 31.7231 24.0279 33.2669L24.0922 33.687C24.0843 34.0549 23.8083 34.3525 23.4324 34.3698L10.8797 34.1507C11.3536 39.4478 14.6645 44.381 19.5064 46.6947C22.2088 47.986 25.2174 48.5206 28.1698 48.6349C28.1698 48.6349 28.5856 48.5188 28.987 49.3372C30.0402 51.4709 31.2567 53.5343 32.6587 55.4545C32.6587 55.4545 32.8139 55.6833 32.7794 55.9343C32.7226 56.3443 32.2605 56.4997 31.7802 56.5031C24.0114 56.5385 16.0871 54.2938 10.5948 48.6125C6.72436 44.6091 4.29693 39.316 3.0763 33.8309C2.3768 30.6877 4.59915 27.1771 8.03267 27.2247L22.7585 27.4817C22.7873 27.484 22.8161 27.4866 22.8446 27.489ZM8.01186 28.5359C5.73141 28.5042 3.75691 30.8133 4.27583 33.2375C4.29741 33.3394 4.31978 33.441 4.34241 33.5427C4.68156 35.0669 5.11447 36.5738 5.65059 38.0422C7.66498 43.5608 11.3078 48.5399 16.3829 51.5213C20.7231 54.071 25.825 55.0996 30.8411 55.1872C30.8411 55.1872 29.862 53.6663 29.1615 52.4408C28.6917 51.6192 28.2499 50.782 27.8307 49.9332C21.8252 49.6636 15.7291 47.2625 12.3894 42.2144C10.7477 39.7334 9.68258 36.7745 9.55948 33.8478C9.53709 33.3165 9.84633 32.8366 10.4365 32.8314L22.6783 33.0451C22.6559 32.9015 22.6343 32.7579 22.6126 32.614C22.4313 31.3855 22.2824 30.1495 22.1643 28.9104L22.1525 28.7827C17.4391 28.7004 12.7256 28.6182 8.01186 28.5359Z" fill="#FFAB00"/>
<path fill-rule="evenodd" clip-rule="evenodd" d="M91.5551 45.2701C87.3642 51.5676 79.9563 57.0607 66.8299 56.452L66.8325 56.4495C66.9961 56.2411 67.1597 56.0307 67.3207 55.8142C67.3431 55.7845 67.3678 55.7521 67.3898 55.7223C67.5288 55.5385 67.6647 55.352 67.8009 55.1626C67.9368 54.9762 68.0705 54.7841 68.2039 54.5918C68.226 54.5594 68.2484 54.5267 68.2705 54.4943C68.4263 54.2699 68.5793 54.0425 68.7323 53.8096C68.8409 53.6444 68.9497 53.4766 69.0583 53.3059C69.1726 53.1271 69.2868 52.9455 69.3983 52.7615C69.4514 52.68 69.5016 52.5988 69.549 52.5175C69.6636 52.3307 69.7777 52.1435 69.8896 51.9511C70.2553 51.3303 70.608 50.6927 70.9527 50.0388L70.9528 50.0361C87.3856 49.9888 89.2897 37.019 89.4041 35.1037C89.4121 34.9725 89.3109 34.8639 89.1835 34.8617L76.2924 34.6367C76.3397 34.4104 76.3841 34.1837 76.4263 33.957C76.5154 33.504 76.5992 33.0456 76.675 32.5868C76.7171 32.3572 76.7536 32.1278 76.7904 31.8958C76.8722 31.3878 76.9488 30.8771 77.0201 30.3634C77.045 30.1857 77.0671 30.0083 77.0917 29.828C77.1233 29.582 77.1546 29.3359 77.1833 29.0875L91.7896 29.3424C94.6317 29.392 96.6928 32.1008 96.0019 34.8876C95.5667 36.6399 94.9498 38.6075 94.0717 40.623" fill="#FFAB00"/>
<path fill-rule="evenodd" clip-rule="evenodd" d="M91.5551 45.2701C87.3642 51.5676 79.9563 57.0607 66.8299 56.452L66.8325 56.4495C66.9961 56.2411 67.1597 56.0307 67.3207 55.8142C67.3431 55.7845 67.3678 55.7521 67.3898 55.7223C67.5288 55.5385 67.6647 55.352 67.8009 55.1626C67.9368 54.9762 68.0705 54.7841 68.2039 54.5918C68.226 54.5594 68.2484 54.5267 68.2705 54.4943C68.4263 54.2699 68.5793 54.0425 68.7323 53.8096C68.8409 53.6444 68.9497 53.4766 69.0583 53.3059C69.1726 53.1271 69.2868 52.9455 69.3983 52.7615C69.4514 52.68 69.5016 52.5988 69.549 52.5175C69.6636 52.3307 69.7777 52.1435 69.8896 51.9511C70.2553 51.3303 70.608 50.6927 70.9527 50.0388L70.9528 50.0361C87.3856 49.9888 89.2897 37.019 89.4041 35.1037C89.4121 34.9725 89.3109 34.8639 89.1835 34.8617L76.2924 34.6367C76.3397 34.4104 76.3841 34.1837 76.4263 33.957C76.5154 33.504 76.5992 33.0456 76.675 32.5868C76.7171 32.3572 76.7536 32.1278 76.7904 31.8958C76.8722 31.3878 76.9488 30.8771 77.0201 30.3634C77.045 30.1857 77.0671 30.0083 77.0917 29.828C77.1233 29.582 77.1546 29.3359 77.1833 29.0875L91.7896 29.3424C94.6317 29.392 96.6928 32.1008 96.0019 34.8876C95.5667 36.6399 94.9498 38.6075 94.0717 40.623" fill="white" fill-opacity="0.4"/>
<path fill-rule="evenodd" clip-rule="evenodd" d="M77.7169 30.0498C77.5463 31.344 77.3408 32.6354 77.0963 33.9123L77.0803 33.9947L89.2404 34.208C89.5977 34.2423 89.6206 34.314 89.7263 34.3995C90.2867 34.8532 90.0016 35.8547 89.8405 36.6811C88.8867 41.5771 85.7551 46.0329 81.4005 48.3534C78.3392 49.9846 74.8217 50.6296 71.3448 50.6883C71.3448 50.6883 70.3221 52.5127 69.7778 53.3859C69.7202 53.4777 69.662 53.5693 69.6038 53.6609C69.1317 54.3995 68.6364 55.125 68.1179 55.8347L68.1163 55.8368C74.9801 55.9495 82.0179 54.1622 87.1928 49.4046C88.6227 48.0902 89.8824 46.5916 90.9687 44.9763C90.9687 44.9763 91.2851 44.5453 91.6848 44.6276C92.1628 44.7259 92.4397 45.1318 91.8901 45.9375C88.1216 51.4244 82.2015 55.2154 75.6439 56.5151C72.8379 57.0713 69.9625 57.2328 67.1111 57.1203C65.7123 57.0652 66.1213 56.2668 66.3792 55.9804C66.3792 55.9804 67.3858 54.6473 67.9662 53.786C68.82 52.5198 69.6053 51.192 70.3161 49.8516C70.6653 49.1933 71.9564 49.3821 73.0317 49.2999C77.8613 48.9304 82.8057 46.9525 85.7756 42.8816C87.3482 40.726 88.3844 38.1553 88.7143 35.5093L76.281 35.2923C75.3631 35.2178 75.8859 33.4481 76.1497 31.7918C76.2873 30.9285 76.4107 30.0629 76.5172 29.1939C76.5172 29.1939 76.5664 28.4597 77.1948 28.4319C82.0889 28.5173 86.9842 28.5495 91.877 28.6887C94.8205 28.7944 97.3522 31.8476 96.6579 34.9347C96.2048 36.9488 95.5192 38.911 94.7074 40.7907C94.5416 41.1748 93.807 41.4972 93.5032 40.9394C93.2194 40.4185 93.9192 39.3397 94.2782 38.344C94.5799 37.5075 94.8496 36.6594 95.0891 35.8026C95.3496 34.8707 95.601 33.9142 95.4011 32.9932C95.0429 31.3427 93.5258 30.0477 91.8067 29.9985L77.7555 29.7533C77.7429 29.8522 77.73 29.9511 77.7169 30.0498Z" fill="#FFAB00"/>
<g style="mix-blend-mode:overlay">
<path d="M51.2449 65.3652C51.2449 65.3652 52.4554 65.229 53.613 64.9696C54.7711 64.7101 56.8709 63.835 57.9872 63.295C59.1038 62.7549 60.9739 61.3427 62.5184 60.0644C64.0629 58.7861 65.7145 56.6705 67.1291 54.9238C68.5435 53.177 70.9789 48.4184 71.4574 47.4478C71.9357 46.4771 73.814 41.9417 74.6607 38.6933C75.5073 35.4451 76.1593 31.7738 76.4794 29.3087C76.7034 27.5813 76.8763 24.8914 76.9598 23.4364C76.9918 22.8801 76.559 22.4109 76.0075 22.4013L69.3135 22.2844C69.3135 22.2844 69.5878 32.1184 67.0771 42.29C63.2501 57.7929 51.2449 65.3652 51.2449 65.3652Z" fill="black" fill-opacity="0.25"/>
</g>
<g style="mix-blend-mode:overlay">
<path d="M50.2678 66.8425C50.2678 66.8425 52.1845 66.7129 52.2781 66.6212L51.9988 82.6289L49.9928 82.5938L50.2678 66.8425Z" fill="black" fill-opacity="0.25"/>
</g>
<g style="mix-blend-mode:overlay">
<path d="M63.5155 90.1485C63.4392 89.2382 63.2381 87.5567 61.3778 85.7761C59.5175 83.9956 56.9553 84.0907 56.9553 84.0907L56.7708 84.0874C56.7708 84.0874 59.7536 85.0017 60.2644 90.0917L63.5155 90.1485Z" fill="black" fill-opacity="0.25"/>
</g>
<g style="mix-blend-mode:overlay">
<path d="M70.62 96.9736C70.5519 96.1616 70.4715 94.6401 68.8044 93.0612C67.012 91.3634 64.77 91.5714 64.77 91.5714L64.6054 91.5685C64.6054 91.5685 67.2652 92.384 67.7207 96.923L70.62 96.9736Z" fill="black" fill-opacity="0.25"/>
</g>
<g style="mix-blend-mode:overlay">
<path d="M59.5158 28.5921L59.3722 28.6263L59.4745 28.7277C61.594 30.8738 59.4652 34.4539 56.5968 33.5723L56.4573 33.5305L56.4936 33.6702C56.7249 34.5478 56.563 35.3424 56.1682 35.9677L60.0593 44.7497C60.1392 44.9321 59.9568 45.1178 59.7762 45.0386L55.6879 43.2438L54.2896 47.5214C54.2263 47.7091 53.9694 47.723 53.8895 47.5406L49.8312 38.3727C49.0752 38.69 48.1954 38.6746 47.4515 38.3311L43.1347 47.227C43.0273 47.4481 42.7059 47.4215 42.6371 47.1842L41.4281 42.9949L37.4049 44.593C37.1777 44.6835 36.9584 44.4462 37.0661 44.2225L41.1994 35.7064C40.8264 35.0651 40.6898 34.2679 40.9518 33.3989L40.9929 33.2606L40.8549 33.2976C37.957 34.0785 35.9545 30.4262 38.1454 28.3554L38.251 28.2576L38.1115 28.2184C35.2152 27.4334 35.2881 23.256 38.2101 22.5699L38.3509 22.5356L38.2488 22.4342C38.0292 22.2126 37.857 21.9761 37.7263 21.7325L60.1272 22.1235C59.9854 22.365 59.8048 22.5953 59.5779 22.8065L59.4721 22.9043L59.6144 22.9435C62.5107 23.7312 62.4378 27.9086 59.5158 28.5921Z" fill="black" fill-opacity="0.25"/>
</g>
<path d="M32.6554 29.3495C30.6935 29.2127 30.7818 27.0071 30.7818 27.0071C30.6871 29.4298 28.7228 29.2809 28.7228 29.2809C28.7228 29.2809 30.7381 29.5115 30.7023 31.5661C30.7023 31.5661 30.9907 29.5143 32.6554 29.3495Z" fill="white"/>
<path d="M34.5484 31.7739C33.3423 31.6898 33.3966 30.3338 33.3966 30.3338C33.3384 31.8233 32.1308 31.7317 32.1308 31.7317C32.1308 31.7317 33.3697 31.8734 33.3476 33.1363C33.3476 33.1363 33.5249 31.8751 34.5484 31.7739Z" fill="white"/>
<path d="M48.4607 47.1797C48.6527 47.2057 48.6785 47.2702 48.7236 47.3216L53.0084 52.5988C53.1252 52.7539 53.1025 52.8074 53.0947 52.8871C53.0649 53.1917 52.63 53.3545 52.4063 53.098L48.1216 47.8208C47.7058 47.2698 48.2554 47.1668 48.4607 47.1797Z" fill="#3B1B6A"/>
<path d="M51.6708 47.4282C51.7719 47.4373 51.8661 47.4843 51.9349 47.5599C52.3255 48.023 52.7076 48.4935 53.0808 48.971C53.3142 49.2931 52.7873 49.8091 52.4793 49.4699C52.0887 49.0068 51.7066 48.5363 51.3333 48.0588C51.1534 47.8105 51.3286 47.4104 51.6708 47.4282Z" fill="#3B1B6A"/>
<path d="M47.4527 49.6678C47.5516 49.6777 47.6421 49.7217 47.7121 49.7946C48.5572 50.7801 49.3497 51.8109 50.1682 52.8191C50.4041 53.1262 49.9674 53.7393 49.5799 53.3343C48.7348 52.3489 47.9423 51.3181 47.1238 50.3099C46.9324 50.0605 47.0696 49.6509 47.4527 49.6678Z" fill="#3B1B6A"/>
<path fill-rule="evenodd" clip-rule="evenodd" d="M41.3801 97.4107C41.5763 97.4406 41.7206 97.6084 41.7236 97.8081L41.6435 102.394C41.6285 102.692 41.5353 102.691 41.4118 102.746C41.1753 102.853 40.8696 102.668 40.865 102.38L40.9451 97.7945C40.9566 97.5651 41.0942 97.3863 41.3801 97.4107Z" fill="#8592A3"/>
<path fill-rule="evenodd" clip-rule="evenodd" d="M41.3801 97.4107C41.5763 97.4406 41.7206 97.6084 41.7236 97.8081L41.6435 102.394C41.6285 102.692 41.5353 102.691 41.4118 102.746C41.1753 102.853 40.8696 102.668 40.865 102.38L40.9451 97.7945C40.9566 97.5651 41.0942 97.3863 41.3801 97.4107Z" fill="black" fill-opacity="0.2"/>
<path fill-rule="evenodd" clip-rule="evenodd" d="M45.4538 96.8297C45.639 96.8715 45.7709 97.0291 45.7771 97.2241L45.5957 107.617C45.5688 108.015 44.8365 108.192 44.8172 107.603L44.9986 97.2105C45.0146 96.9773 45.2121 96.8005 45.4538 96.8297Z" fill="#8592A3"/>
<path fill-rule="evenodd" clip-rule="evenodd" d="M45.4538 96.8297C45.639 96.8715 45.7709 97.0291 45.7771 97.2241L45.5957 107.617C45.5688 108.015 44.8365 108.192 44.8172 107.603L44.9986 97.2105C45.0146 96.9773 45.2121 96.8005 45.4538 96.8297Z" fill="black" fill-opacity="0.2"/>
<path d="M48.6825 33.999L44.3655 42.8964C44.2578 43.1183 43.9364 43.0903 43.8678 42.8531L42.6578 38.6632L38.6359 40.2629C38.4084 40.3534 38.1896 40.1137 38.2973 39.8919L42.4304 31.3742C42.7964 32.0049 43.3979 32.4768 44.0811 32.6991C45.0196 33.008 46.1153 32.8459 46.9765 31.9769L47.0782 31.8737L47.1085 32.0143C47.334 32.997 47.9421 33.6605 48.6825 33.999Z" fill="white"/>
<path fill-rule="evenodd" clip-rule="evenodd" d="M42.5116 30.7235C42.9591 30.7995 42.964 31.0118 43.0741 31.1753C43.8154 32.2501 45.4746 32.5398 46.5017 31.5292L46.6581 31.3743C46.7876 31.2719 46.8194 31.2677 46.8914 31.2459C47.2166 31.1469 47.598 31.3487 47.6989 31.6818C47.8334 32.1272 48.1502 33.0293 48.9541 33.4033C48.9541 33.4033 49.468 33.8209 49.2652 34.2874L44.9452 43.1906C44.6127 43.844 43.4956 43.8463 43.2467 43.0432L42.234 39.5364L38.8392 40.8861C38.154 41.1131 37.3651 40.3601 37.712 39.6091L41.8478 31.0857C41.9774 30.8446 42.2242 30.6993 42.5116 30.7235ZM39.3122 39.2892L42.4712 38.0354C42.8141 37.9467 43.1682 38.142 43.2807 38.4792L44.2155 41.7162L47.8338 34.2588C47.6559 34.1292 47.6317 34.1036 47.543 34.0234C47.2208 33.7316 46.9594 33.3755 46.7635 32.9815C46.7635 32.9815 45.5697 33.6193 44.486 33.4648C44.1193 33.4125 43.7604 33.3013 43.4263 33.1399C43.0549 32.9603 42.5737 32.5682 42.5737 32.5682C41.4866 34.8085 40.3996 37.0489 39.3122 39.2892Z" fill="#696CFF"/>
<path fill-rule="evenodd" clip-rule="evenodd" d="M42.5116 30.7235C42.9591 30.7995 42.964 31.0118 43.0741 31.1753C43.8154 32.2501 45.4746 32.5398 46.5017 31.5292L46.6581 31.3743C46.7876 31.2719 46.8194 31.2677 46.8914 31.2459C47.2166 31.1469 47.598 31.3487 47.6989 31.6818C47.8334 32.1272 48.1502 33.0293 48.9541 33.4033C48.9541 33.4033 49.468 33.8209 49.2652 34.2874L44.9452 43.1906C44.6127 43.844 43.4956 43.8463 43.2467 43.0432L42.234 39.5364L38.8392 40.8861C38.154 41.1131 37.3651 40.3601 37.712 39.6091L41.8478 31.0857C41.9774 30.8446 42.2242 30.6993 42.5116 30.7235ZM39.3122 39.2892L42.4712 38.0354C42.8141 37.9467 43.1682 38.142 43.2807 38.4792L44.2155 41.7162L47.8338 34.2588C47.6559 34.1292 47.6317 34.1036 47.543 34.0234C47.2208 33.7316 46.9594 33.3755 46.7635 32.9815C46.7635 32.9815 45.5697 33.6193 44.486 33.4648C44.1193 33.4125 43.7604 33.3013 43.4263 33.1399C43.0549 32.9603 42.5737 32.5682 42.5737 32.5682C41.4866 34.8085 40.3996 37.0489 39.3122 39.2892Z" fill="black" fill-opacity="0.15"/>
<path d="M61.0073 40.7067L56.9174 38.9121L55.5186 43.1894C55.4571 43.3772 55.1991 43.3905 55.1192 43.21L51.0612 34.0426C51.6773 33.7834 52.2136 33.3046 52.5278 32.6013C52.5957 32.448 52.6535 32.2864 52.7015 32.112L52.7366 31.9725L52.8347 32.0791C53.665 32.9776 54.7541 33.1779 55.7031 32.902C56.3934 32.7037 57.0089 32.253 57.399 31.6355L61.2885 40.4193C61.3687 40.5999 61.1868 40.7856 61.0073 40.7067Z" fill="white"/>
<path fill-rule="evenodd" clip-rule="evenodd" d="M57.4488 30.9815C57.6825 31.0096 57.8853 31.1521 57.9914 31.3675L61.8834 40.1569C62.1503 40.7914 61.4883 41.6166 60.754 41.3106L57.3105 39.7996L56.1234 43.4274C55.8734 44.066 54.8553 44.1838 54.5293 43.4835L50.4688 34.3105C50.1837 33.5863 51.3294 33.398 51.8237 32.5518C52.0013 32.2474 52.1079 31.811 52.1079 31.811C52.2036 31.4876 52.2638 31.5018 52.3812 31.4241C52.6725 31.2314 52.9725 31.2768 53.3406 31.6651C54.2886 32.6478 56.077 32.4935 56.8544 31.2795C56.8544 31.2795 57.061 30.968 57.4488 30.9815ZM57.2092 32.8273C56.0459 33.7865 54.3042 33.9418 53.0338 33.1041C53.0338 33.1041 52.5642 33.8812 51.8996 34.3303L55.2541 41.9086L56.3204 38.6556C56.4722 38.3325 56.8473 38.1827 57.176 38.3107L60.2388 39.6545L57.2139 32.8232C57.2124 32.8245 57.2108 32.8257 57.2092 32.8273Z" fill="#696CFF"/>
<path fill-rule="evenodd" clip-rule="evenodd" d="M57.4488 30.9815C57.6825 31.0096 57.8853 31.1521 57.9914 31.3675L61.8834 40.1569C62.1503 40.7914 61.4883 41.6166 60.754 41.3106L57.3105 39.7996L56.1234 43.4274C55.8734 44.066 54.8553 44.1838 54.5293 43.4835L50.4688 34.3105C50.1837 33.5863 51.3294 33.398 51.8237 32.5518C52.0013 32.2474 52.1079 31.811 52.1079 31.811C52.2036 31.4876 52.2638 31.5018 52.3812 31.4241C52.6725 31.2314 52.9725 31.2768 53.3406 31.6651C54.2886 32.6478 56.077 32.4935 56.8544 31.2795C56.8544 31.2795 57.061 30.968 57.4488 30.9815ZM57.2092 32.8273C56.0459 33.7865 54.3042 33.9418 53.0338 33.1041C53.0338 33.1041 52.5642 33.8812 51.8996 34.3303L55.2541 41.9086L56.3204 38.6556C56.4722 38.3325 56.8473 38.1827 57.176 38.3107L60.2388 39.6545L57.2139 32.8232C57.2124 32.8245 57.2108 32.8257 57.2092 32.8273Z" fill="black" fill-opacity="0.1"/>
<path fill-rule="evenodd" clip-rule="evenodd" d="M60.7471 24.2607L60.6037 24.2954L60.706 24.3979C62.8255 26.5427 60.6956 30.1233 57.8283 29.241L57.6883 29.1994L57.7246 29.338C57.9559 30.2156 57.7932 31.012 57.3992 31.6355C57.0092 32.253 56.3936 32.7039 55.703 32.902C54.7543 33.1779 53.6652 32.9776 52.8346 32.0794L52.7366 31.9725L52.7014 32.112C52.6535 32.2864 52.5956 32.448 52.5278 32.6013C52.2139 33.3046 51.6775 33.7834 51.0611 34.0426C50.3054 34.3591 49.427 34.3438 48.6828 33.999C47.9424 33.6608 47.334 32.997 47.1087 32.0143L47.0785 31.8737L46.9767 31.9772C46.1156 32.8459 45.0199 33.008 44.0814 32.6991C43.3982 32.4771 42.7966 32.0049 42.4304 31.3742C42.0564 30.7352 41.9213 29.9357 42.1834 29.0668L42.2244 28.9295L42.0852 28.9662C39.1885 29.7479 37.1849 26.0951 39.3762 24.0256L39.482 23.9268L39.342 23.8871C36.4462 23.1031 36.5191 18.9241 39.4406 18.2395L39.5819 18.205L39.4796 18.1022C37.3618 15.9597 39.4917 12.3772 42.3593 13.2595L42.4972 13.3031L42.461 13.1624C41.6884 10.2336 45.304 8.20758 47.353 10.4211L47.4511 10.528L47.4862 10.3885C48.267 7.46002 52.4008 7.53218 53.0789 10.4861L53.1092 10.6268L53.2109 10.5233C55.3338 8.38265 58.8786 10.5336 58.0022 13.4337L57.9611 13.573L58.1025 13.5343C60.3867 12.9168 62.1166 15.0629 61.6688 17.0104C61.5475 17.5316 61.2718 18.0398 60.8094 18.4746L60.7036 18.5737L60.8457 18.6132C63.7414 19.3993 63.6685 23.5782 60.7471 24.2607Z" fill="#696CFF"/>
<path fill-rule="evenodd" clip-rule="evenodd" d="M50.3672 7.57665C51.6257 7.61649 52.8341 8.3482 53.4116 9.49411C53.4116 9.49411 54.506 8.90097 55.596 9.02203C57.3583 9.21753 58.8814 10.8482 58.7816 12.743C58.7816 12.743 59.9792 12.7836 60.837 13.3869C62.3246 14.4328 62.8496 16.6866 61.8243 18.2732C61.8243 18.2732 62.8853 18.9394 63.3243 19.9489C64.0403 21.5959 63.385 23.7459 61.7279 24.5976C61.7279 24.5976 61.6169 24.4461 61.811 24.8078C62.9451 26.9768 61.2236 30.1714 58.5113 30.028C58.5113 30.028 58.4661 31.2522 57.8532 32.1279C56.8134 33.6128 54.6172 34.1477 53.0341 33.1043C53.0341 33.1043 52.3148 34.2599 51.2221 34.6836C49.6043 35.3106 47.5763 34.6179 46.7635 32.9815C46.7635 32.9815 45.609 33.6442 44.4301 33.4562C42.7303 33.1852 41.3024 31.5885 41.4053 29.7405C41.4053 29.7405 40.1615 29.7172 39.2779 29.062C37.8453 27.9995 37.3473 25.8054 38.36 24.2303C38.36 24.2303 38.53 24.306 38.1825 24.0911C36.127 22.7867 36.0098 19.1644 38.4595 17.9032C38.4595 17.9032 38.5692 18.0546 38.3749 17.6929C37.2445 15.529 38.9319 12.3275 41.6764 12.4727C41.6764 12.4727 41.6964 12.6606 41.7075 12.2487C41.8 9.80347 44.8443 7.88189 47.1503 9.39426C47.1503 9.39426 47.4554 8.89987 47.8295 8.54021C48.5014 7.89405 49.4328 7.55592 50.3672 7.57665ZM50.2872 8.88658C49.3172 8.88358 48.401 9.5399 48.1203 10.5313C48.1203 10.5313 48.0898 10.8316 47.8818 11.0184C47.2591 11.5765 46.5939 10.187 45.3604 10.1405C43.9385 10.0868 42.7066 11.512 43.1252 13.1378C43.1252 13.1378 43.1568 14.1362 42.036 13.8493C41.4849 13.7146 40.8872 13.7837 40.3997 14.0776C39.243 14.7746 38.8855 16.5621 39.9391 17.6391C39.9391 17.6391 40.2183 17.8707 40.2303 18.1791C40.2612 18.9786 38.7759 18.8281 38.158 19.9185C37.4827 21.1103 38.0569 22.8521 39.5155 23.2553C39.5155 23.2553 40.6109 23.6784 39.7199 24.6035C39.3539 24.9916 39.1178 25.5043 39.0978 26.038C39.0442 27.4748 40.4523 28.7184 42.0611 28.295C42.0611 28.295 43.0398 28.2625 42.7605 29.4199C42.5898 30.1703 42.8211 30.9889 43.3609 31.5177C44.1876 32.3272 45.6135 32.403 46.5023 31.5295C46.5023 31.5295 46.6724 31.3171 46.8797 31.2496C47.3078 31.1102 47.6702 31.5874 47.7588 31.9394C48.1417 33.3786 50.0774 34.097 51.2941 33.1571C51.6746 32.8629 51.9335 32.4307 52.0688 31.9635C52.0688 31.9635 52.1286 31.5561 52.4326 31.3932C53.1139 31.0282 53.6542 32.3188 54.8307 32.36C56.2531 32.4098 57.4846 30.9859 57.0611 29.3671C57.0611 29.3671 56.9785 28.3778 58.2047 28.6639C58.741 28.7829 59.3163 28.7074 59.7877 28.4232C60.9452 27.7259 61.3044 25.9429 60.2468 24.8613C60.2468 24.8613 59.9674 24.6303 59.9554 24.3214C59.9242 23.521 61.4123 23.6724 62.0297 22.583C62.7038 21.3934 62.1351 19.6503 60.6737 19.2455C60.6737 19.2455 60.1992 19.142 60.0842 18.7688C59.9515 18.3389 60.4501 17.989 60.7295 17.5692C61.6889 16.1275 60.2803 13.6335 58.2698 14.1679C58.2698 14.1679 57.8123 14.3215 57.5256 14.0594C57.1768 13.7404 57.4754 13.1425 57.4892 12.5924C57.5327 10.8739 55.1482 9.542 53.6894 10.9674C53.6894 10.9674 53.4277 11.2978 53.0793 11.2818C52.4023 11.2505 52.4729 10.1228 51.8252 9.49711C51.4127 9.09853 50.8932 8.89456 50.2872 8.88658Z" fill="#696CFF"/>
<path fill-rule="evenodd" clip-rule="evenodd" d="M50.3672 7.57665C51.6257 7.61649 52.8341 8.3482 53.4116 9.49411C53.4116 9.49411 54.506 8.90097 55.596 9.02203C57.3583 9.21753 58.8814 10.8482 58.7816 12.743C58.7816 12.743 59.9792 12.7836 60.837 13.3869C62.3246 14.4328 62.8496 16.6866 61.8243 18.2732C61.8243 18.2732 62.8853 18.9394 63.3243 19.9489C64.0403 21.5959 63.385 23.7459 61.7279 24.5976C61.7279 24.5976 61.6169 24.4461 61.811 24.8078C62.9451 26.9768 61.2236 30.1714 58.5113 30.028C58.5113 30.028 58.4661 31.2522 57.8532 32.1279C56.8134 33.6128 54.6172 34.1477 53.0341 33.1043C53.0341 33.1043 52.3148 34.2599 51.2221 34.6836C49.6043 35.3106 47.5763 34.6179 46.7635 32.9815C46.7635 32.9815 45.609 33.6442 44.4301 33.4562C42.7303 33.1852 41.3024 31.5885 41.4053 29.7405C41.4053 29.7405 40.1615 29.7172 39.2779 29.062C37.8453 27.9995 37.3473 25.8054 38.36 24.2303C38.36 24.2303 38.53 24.306 38.1825 24.0911C36.127 22.7867 36.0098 19.1644 38.4595 17.9032C38.4595 17.9032 38.5692 18.0546 38.3749 17.6929C37.2445 15.529 38.9319 12.3275 41.6764 12.4727C41.6764 12.4727 41.6964 12.6606 41.7075 12.2487C41.8 9.80347 44.8443 7.88189 47.1503 9.39426C47.1503 9.39426 47.4554 8.89987 47.8295 8.54021C48.5014 7.89405 49.4328 7.55592 50.3672 7.57665ZM50.2872 8.88658C49.3172 8.88358 48.401 9.5399 48.1203 10.5313C48.1203 10.5313 48.0898 10.8316 47.8818 11.0184C47.2591 11.5765 46.5939 10.187 45.3604 10.1405C43.9385 10.0868 42.7066 11.512 43.1252 13.1378C43.1252 13.1378 43.1568 14.1362 42.036 13.8493C41.4849 13.7146 40.8872 13.7837 40.3997 14.0776C39.243 14.7746 38.8855 16.5621 39.9391 17.6391C39.9391 17.6391 40.2183 17.8707 40.2303 18.1791C40.2612 18.9786 38.7759 18.8281 38.158 19.9185C37.4827 21.1103 38.0569 22.8521 39.5155 23.2553C39.5155 23.2553 40.6109 23.6784 39.7199 24.6035C39.3539 24.9916 39.1178 25.5043 39.0978 26.038C39.0442 27.4748 40.4523 28.7184 42.0611 28.295C42.0611 28.295 43.0398 28.2625 42.7605 29.4199C42.5898 30.1703 42.8211 30.9889 43.3609 31.5177C44.1876 32.3272 45.6135 32.403 46.5023 31.5295C46.5023 31.5295 46.6724 31.3171 46.8797 31.2496C47.3078 31.1102 47.6702 31.5874 47.7588 31.9394C48.1417 33.3786 50.0774 34.097 51.2941 33.1571C51.6746 32.8629 51.9335 32.4307 52.0688 31.9635C52.0688 31.9635 52.1286 31.5561 52.4326 31.3932C53.1139 31.0282 53.6542 32.3188 54.8307 32.36C56.2531 32.4098 57.4846 30.9859 57.0611 29.3671C57.0611 29.3671 56.9785 28.3778 58.2047 28.6639C58.741 28.7829 59.3163 28.7074 59.7877 28.4232C60.9452 27.7259 61.3044 25.9429 60.2468 24.8613C60.2468 24.8613 59.9674 24.6303 59.9554 24.3214C59.9242 23.521 61.4123 23.6724 62.0297 22.583C62.7038 21.3934 62.1351 19.6503 60.6737 19.2455C60.6737 19.2455 60.1992 19.142 60.0842 18.7688C59.9515 18.3389 60.4501 17.989 60.7295 17.5692C61.6889 16.1275 60.2803 13.6335 58.2698 14.1679C58.2698 14.1679 57.8123 14.3215 57.5256 14.0594C57.1768 13.7404 57.4754 13.1425 57.4892 12.5924C57.5327 10.8739 55.1482 9.542 53.6894 10.9674C53.6894 10.9674 53.4277 11.2978 53.0793 11.2818C52.4023 11.2505 52.4729 10.1228 51.8252 9.49711C51.4127 9.09853 50.8932 8.89456 50.2872 8.88658Z" fill="black" fill-opacity="0.15"/>
<path d="M54.6283 19.9374C54.7535 20.3798 54.8167 20.8483 54.8083 21.3324C54.7623 23.9634 52.6143 26.0596 50.0106 26.0142C47.4067 25.9687 45.3333 23.7988 45.3792 21.1678C45.4252 18.5365 47.573 16.4406 50.1769 16.4861C50.8815 16.4984 51.5475 16.6661 52.1429 16.9566" fill="white"/>
<path fill-rule="evenodd" clip-rule="evenodd" d="M50.2257 15.8311C51.0033 15.8528 51.8013 16.0021 52.4661 16.3881C53.0484 16.7259 52.7134 17.8805 51.5908 17.4275C49.2105 16.4847 46.1469 18.354 46.0312 21.0727C45.9215 23.6504 48.6772 25.95 51.2346 25.1951C53.2545 24.5987 54.6058 22.2811 54.0035 20.1149C54.0035 20.1149 53.9383 19.6431 54.2366 19.4146C54.6647 19.0874 55.2175 19.4496 55.3647 20.2375C55.8593 22.8824 54.1013 25.7842 51.4705 26.4898C48.411 27.3101 44.8849 24.8161 44.7353 21.5042C44.605 18.6214 47.0401 15.8734 50.0503 15.8299C50.1087 15.8296 50.1673 15.8301 50.2257 15.8311Z" fill="#696CFF"/>
<path fill-rule="evenodd" clip-rule="evenodd" d="M50.2257 15.8311C51.0033 15.8528 51.8013 16.0021 52.4661 16.3881C53.0484 16.7259 52.7134 17.8805 51.5908 17.4275C49.2105 16.4847 46.1469 18.354 46.0312 21.0727C45.9215 23.6504 48.6772 25.95 51.2346 25.1951C53.2545 24.5987 54.6058 22.2811 54.0035 20.1149C54.0035 20.1149 53.9383 19.6431 54.2366 19.4146C54.6647 19.0874 55.2175 19.4496 55.3647 20.2375C55.8593 22.8824 54.1013 25.7842 51.4705 26.4898C48.411 27.3101 44.8849 24.8161 44.7353 21.5042C44.605 18.6214 47.0401 15.8734 50.0503 15.8299C50.1087 15.8296 50.1673 15.8301 50.2257 15.8311Z" fill="black" fill-opacity="0.1"/>
<path fill-rule="evenodd" clip-rule="evenodd" d="M44.0501 25.2382C44.3806 25.2624 44.5355 25.6889 44.7928 26.0003C45.0594 26.3236 45.3543 26.6232 45.6723 26.8948C46.0183 27.1903 46.393 27.4512 46.7876 27.6771C46.7876 27.6771 47.0096 27.8539 46.9817 28.0702C46.9052 28.6628 45.851 28.1065 45.0385 27.3815C44.5342 26.9314 44.0887 26.4154 43.71 25.8525C43.71 25.8525 43.6203 25.2293 44.0501 25.2382Z" fill="#696CFF"/>
<path fill-rule="evenodd" clip-rule="evenodd" d="M44.0501 25.2382C44.3806 25.2624 44.5355 25.6889 44.7928 26.0003C45.0594 26.3236 45.3543 26.6232 45.6723 26.8948C46.0183 27.1903 46.393 27.4512 46.7876 27.6771C46.7876 27.6771 47.0096 27.8539 46.9817 28.0702C46.9052 28.6628 45.851 28.1065 45.0385 27.3815C44.5342 26.9314 44.0887 26.4154 43.71 25.8525C43.71 25.8525 43.6203 25.2293 44.0501 25.2382Z" fill="black" fill-opacity="0.1"/>
<path fill-rule="evenodd" clip-rule="evenodd" d="M65.5385 5.68631C65.876 5.71772 66.0366 6.2537 65.6773 6.43474C64.9702 6.75085 64.2494 7.03376 63.5351 7.33325C63.1837 7.47123 62.7234 6.86444 63.2206 6.61395C63.9914 6.26945 64.7574 5.65016 65.5385 5.68631Z" fill="#696CFF"/>
<path fill-rule="evenodd" clip-rule="evenodd" d="M59.3826 1.29844C59.5809 1.3178 59.7393 1.48904 59.7434 1.6917C59.7243 2.42262 59.672 3.1524 59.6358 3.88271C59.6082 4.2629 58.8691 4.4269 58.8577 3.86226C58.8768 3.13135 58.9294 2.40158 58.9653 1.67125C58.9809 1.45486 59.1272 1.2857 59.3826 1.29844Z" fill="#696CFF"/>
<path fill-rule="evenodd" clip-rule="evenodd" d="M62.8022 2.78554C63.0733 2.81122 63.2512 3.1489 63.1002 3.39358C62.6524 4.05173 62.1764 4.68971 61.7145 5.3376C61.4769 5.65569 60.8091 5.31966 61.0728 4.89224C61.5206 4.23409 61.9966 3.59611 62.4585 2.94822C62.5386 2.84072 62.6624 2.77885 62.8022 2.78554Z" fill="#696CFF"/>
<g style="mix-blend-mode:overlay">
<path d="M69.8099 97.5172C69.8535 97.5185 70.2391 97.5476 70.2824 97.5526C72.1114 97.7622 73.3337 98.8735 73.5032 99.0373C75.5064 100.952 75.2107 103.049 75.2441 103.559L75.044 115.02C75.0394 115.283 74.8218 115.492 74.5575 115.485L73.1006 115.452C71.5237 115.418 61.2238 115.259 59.5022 115.242L57.2815 115.214C57.6574 114.724 58.0853 114.208 58.5707 113.655C61.8924 109.867 63.3019 105.932 63.6376 104.878C63.702 104.675 63.7822 104.476 63.8624 104.275C65.5033 100.129 67.7527 100.329 68.8571 100.693L68.8438 100.395C68.7999 99.4373 68.7077 98.4341 68.5337 97.495L69.8099 97.5172Z" fill="black" fill-opacity="0.25"/>
</g>
<path fill-rule="evenodd" clip-rule="evenodd" d="M69.2626 155.64C68.848 146.061 65.1601 129.387 65.3003 127.718C65.5001 125.36 72.4399 122.093 75.1999 118.361C77.9599 114.629 77.4923 114.147 77.0673 111.227C76.6422 108.307 76.1682 99.5523 74.3216 95.1956C73.5317 93.331 72.3241 92.5163 71.3912 92.1609C70.7767 91.9267 70.1405 92.4516 70.2591 93.0978C70.522 94.5351 70.9839 97.0277 71.4121 99.3144C71.4146 99.3224 71.4145 99.3274 71.417 99.3355C71.5908 100.274 71.6934 101.228 71.7375 102.186L71.7506 102.483C70.6464 102.119 68.3967 101.92 66.7561 106.066C66.6759 106.266 66.5957 106.465 66.5311 106.669C66.1956 107.723 64.7861 111.657 61.4642 115.445C57.9081 119.497 57.4491 121.553 57.8747 125.94C57.9599 126.817 57.9845 127.695 57.9348 128.575L56.3397 155.414L69.2626 155.64Z" fill="#FF3E1D"/>
<path fill-rule="evenodd" clip-rule="evenodd" d="M69.2626 155.64C68.848 146.061 65.1601 129.387 65.3003 127.718C65.5001 125.36 72.4399 122.093 75.1999 118.361C77.9599 114.629 77.4923 114.147 77.0673 111.227C76.6422 108.307 76.1682 99.5523 74.3216 95.1956C73.5317 93.331 72.3241 92.5163 71.3912 92.1609C70.7767 91.9267 70.1405 92.4516 70.2591 93.0978C70.522 94.5351 70.9839 97.0277 71.4121 99.3144C71.4146 99.3224 71.4145 99.3274 71.417 99.3355C71.5908 100.274 71.6934 101.228 71.7375 102.186L71.7506 102.483C70.6464 102.119 68.3967 101.92 66.7561 106.066C66.6759 106.266 66.5957 106.465 66.5311 106.669C66.1956 107.723 64.7861 111.657 61.4642 115.445C57.9081 119.497 57.4491 121.553 57.8747 125.94C57.9599 126.817 57.9845 127.695 57.9348 128.575L56.3397 155.414L69.2626 155.64Z" fill="white" fill-opacity="0.8"/>
<path fill-rule="evenodd" clip-rule="evenodd" d="M72.2687 100.486C72.8831 100.618 72.8289 101.679 72.8054 102.695C72.7178 106.482 70.8153 109.981 70.7077 113.418C70.7077 113.418 70.6802 113.861 70.4331 114.035C70.0112 114.332 69.5534 113.855 69.6353 112.902C69.831 110.624 70.7089 108.481 71.1651 106.282C71.5124 104.608 71.752 102.958 71.6467 101.267C71.6467 101.267 71.7149 100.425 72.2687 100.486Z" fill="#FF3E1D"/>
<path fill-rule="evenodd" clip-rule="evenodd" d="M72.2687 100.486C72.8831 100.618 72.8289 101.679 72.8054 102.695C72.7178 106.482 70.8153 109.981 70.7077 113.418C70.7077 113.418 70.6802 113.861 70.4331 114.035C70.0112 114.332 69.5534 113.855 69.6353 112.902C69.831 110.624 70.7089 108.481 71.1651 106.282C71.5124 104.608 71.752 102.958 71.6467 101.267C71.6467 101.267 71.7149 100.425 72.2687 100.486Z" fill="white" fill-opacity="0.6"/>
<path fill-rule="evenodd" clip-rule="evenodd" d="M69.0372 104.223C69.4126 104.25 69.6064 104.726 70.1813 104.711C70.6456 104.714 70.8859 105.621 69.8378 105.49C69.2926 105.422 68.6263 105.062 68.6196 104.623C68.6162 104.407 68.8076 104.215 69.0372 104.223Z" fill="#FF3E1D"/>
<path fill-rule="evenodd" clip-rule="evenodd" d="M69.0372 104.223C69.4126 104.25 69.6064 104.726 70.1813 104.711C70.6456 104.714 70.8859 105.621 69.8378 105.49C69.2926 105.422 68.6263 105.062 68.6196 104.623C68.6162 104.407 68.8076 104.215 69.0372 104.223Z" fill="white" fill-opacity="0.6"/>
<path fill-rule="evenodd" clip-rule="evenodd" d="M57.9164 124.885C58.4958 124.929 58.5322 125.701 58.7137 126.279C58.9433 127.009 59.3656 127.705 59.9987 128.143C59.9987 128.143 60.3526 128.48 60.2635 128.84C60.1139 129.444 59.2319 129.339 58.5879 128.663C57.778 127.813 57.1851 126.639 57.2205 125.521C57.2317 125.169 57.4839 124.872 57.9164 124.885Z" fill="#FF3E1D"/>
<path fill-rule="evenodd" clip-rule="evenodd" d="M57.9164 124.885C58.4958 124.929 58.5322 125.701 58.7137 126.279C58.9433 127.009 59.3656 127.705 59.9987 128.143C59.9987 128.143 60.3526 128.48 60.2635 128.84C60.1139 129.444 59.2319 129.339 58.5879 128.663C57.778 127.813 57.1851 126.639 57.2205 125.521C57.2317 125.169 57.4839 124.872 57.9164 124.885Z" fill="white" fill-opacity="0.6"/>
<path fill-rule="evenodd" clip-rule="evenodd" d="M61.9304 118.03C62.6919 118.104 62.3033 118.567 62.1014 118.795C61.3507 119.658 60.9947 120.814 60.9547 121.979C60.9547 121.979 60.9324 122.192 60.7786 122.294C60.5213 122.464 60.1481 122.287 60.1653 121.862C60.2278 120.516 60.6745 119.177 61.5871 118.183C61.5871 118.183 61.7046 118.022 61.9304 118.03Z" fill="#FF3E1D"/>
<path fill-rule="evenodd" clip-rule="evenodd" d="M61.9304 118.03C62.6919 118.104 62.3033 118.567 62.1014 118.795C61.3507 119.658 60.9947 120.814 60.9547 121.979C60.9547 121.979 60.9324 122.192 60.7786 122.294C60.5213 122.464 60.1481 122.287 60.1653 121.862C60.2278 120.516 60.6745 119.177 61.5871 118.183C61.5871 118.183 61.7046 118.022 61.9304 118.03Z" fill="white" fill-opacity="0.8"/>
<g style="mix-blend-mode:overlay">
<path d="M68.5543 154.978L68.0263 142.686C68.0263 142.686 65.6252 130.831 65.6253 129.533C65.6255 128.236 65.5489 127.474 65.996 126.34C66.4435 125.207 70.6944 122.641 70.6944 122.641C74.6443 118.146 75.7076 116.531 76.3138 115.334C76.9197 114.136 76.672 112.856 76.6085 112.632C76.5447 112.407 76.1686 109.469 76.1686 109.469L75.666 104.733C75.666 104.733 75.6126 107.671 75.4805 110.196C75.4705 110.392 75.4646 110.579 75.4606 110.76C75.4089 113.148 74.3771 115.411 72.6269 117.046C70.3492 119.175 64.6055 123.826 63.8444 125.826C62.3584 129.73 65.2255 137.133 65.1609 141.786C65.1301 144.007 65.3368 154.922 65.3368 154.922L68.5543 154.978Z" fill="black" fill-opacity="0.25"/>
</g>
<path fill-rule="evenodd" clip-rule="evenodd" d="M25.7869 154.681C26.5351 145.149 30.8018 128.66 30.7199 126.991C30.6024 124.635 23.7807 121.137 21.1524 117.321C18.5241 113.505 19.0083 113.042 19.5348 110.146C20.0614 107.251 20.8402 98.542 22.8375 94.2643C23.6919 92.4336 24.9272 91.6637 25.8716 91.342C26.4942 91.13 27.1114 91.6753 26.9707 92.3152C26.6576 93.7385 26.1094 96.2066 25.6017 98.4707C25.599 98.4785 25.5989 98.4835 25.5961 98.4916C25.3895 99.421 25.2539 100.368 25.1765 101.321L25.1528 101.617C26.2692 101.292 28.5245 101.172 30.0196 105.361C30.0928 105.564 30.166 105.765 30.2232 105.97C30.522 107.032 31.7936 111.002 34.9812 114.893C38.3941 119.056 38.7812 121.12 38.2027 125.478C38.087 126.349 38.032 127.224 38.0511 128.102L38.7098 154.907L25.7869 154.681Z" fill="#FF3E1D"/>
<path fill-rule="evenodd" clip-rule="evenodd" d="M25.7869 154.681C26.5351 145.149 30.8018 128.66 30.7199 126.991C30.6024 124.635 23.7807 121.137 21.1524 117.321C18.5241 113.505 19.0083 113.042 19.5348 110.146C20.0614 107.251 20.8402 98.542 22.8375 94.2643C23.6919 92.4336 24.9272 91.6637 25.8716 91.342C26.4942 91.13 27.1114 91.6753 26.9707 92.3152C26.6576 93.7385 26.1094 96.2066 25.6017 98.4707C25.599 98.4785 25.5989 98.4835 25.5961 98.4916C25.3895 99.421 25.2539 100.368 25.1765 101.321L25.1528 101.617C26.2692 101.292 28.5245 101.172 30.0196 105.361C30.0928 105.564 30.166 105.765 30.2232 105.97C30.522 107.032 31.7936 111.002 34.9812 114.893C38.3941 119.056 38.7812 121.12 38.2027 125.478C38.087 126.349 38.032 127.224 38.0511 128.102L38.7098 154.907L25.7869 154.681Z" fill="white" fill-opacity="0.8"/>
<path fill-rule="evenodd" clip-rule="evenodd" d="M23.6708 101.822C23.8801 101.82 24.0873 102.106 24.1402 102.465C24.4584 105.055 25.2865 107.589 26.1326 109.851C26.6656 111.288 27.1943 112.773 27.4722 114.299C27.4722 114.299 27.5275 114.635 27.4413 114.842C27.2692 115.257 26.8511 114.94 26.6956 114.188C26.2702 112.166 25.4293 110.319 24.8114 108.441C24.182 106.528 23.647 104.57 23.4019 102.551C23.4019 102.551 23.3573 101.873 23.6708 101.822Z" fill="#FF3E1D"/>
<path fill-rule="evenodd" clip-rule="evenodd" d="M23.6708 101.822C23.8801 101.82 24.0873 102.106 24.1402 102.465C24.4584 105.055 25.2865 107.589 26.1326 109.851C26.6656 111.288 27.1943 112.773 27.4722 114.299C27.4722 114.299 27.5275 114.635 27.4413 114.842C27.2692 115.257 26.8511 114.94 26.6956 114.188C26.2702 112.166 25.4293 110.319 24.8114 108.441C24.182 106.528 23.647 104.57 23.4019 102.551C23.4019 102.551 23.3573 101.873 23.6708 101.822Z" fill="white" fill-opacity="0.6"/>
<path fill-rule="evenodd" clip-rule="evenodd" d="M27.8312 103.446C28.4569 103.488 27.8293 104.949 26.5407 104.669C26.1535 104.584 26.1252 103.891 26.7912 103.902C27.2238 103.899 27.529 103.436 27.8312 103.446Z" fill="#FF3E1D"/>
<path fill-rule="evenodd" clip-rule="evenodd" d="M27.8312 103.446C28.4569 103.488 27.8293 104.949 26.5407 104.669C26.1535 104.584 26.1252 103.891 26.7912 103.902C27.2238 103.899 27.529 103.436 27.8312 103.446Z" fill="white" fill-opacity="0.6"/>
<path fill-rule="evenodd" clip-rule="evenodd" d="M38.3258 124.139C39.0935 124.201 38.9271 125.423 38.4809 126.482C38.1106 127.36 37.5347 128.18 36.7195 128.702C36.7195 128.702 36.4419 128.856 36.1787 128.781C35.6839 128.64 35.542 127.905 36.0648 127.56C36.9906 126.929 37.4742 125.756 37.6334 124.696C37.6334 124.696 37.7555 124.119 38.3258 124.139Z" fill="#FF3E1D"/>
<path fill-rule="evenodd" clip-rule="evenodd" d="M38.3258 124.139C39.0935 124.201 38.9271 125.423 38.4809 126.482C38.1106 127.36 37.5347 128.18 36.7195 128.702C36.7195 128.702 36.4419 128.856 36.1787 128.781C35.6839 128.64 35.542 127.905 36.0648 127.56C36.9906 126.929 37.4742 125.756 37.6334 124.696C37.6334 124.696 37.7555 124.119 38.3258 124.139Z" fill="white" fill-opacity="0.6"/>
<path fill-rule="evenodd" clip-rule="evenodd" d="M34.4719 117.455C34.8118 117.494 35.0224 117.918 35.2355 118.268C35.8093 119.209 36.0563 120.319 36.0556 121.424C36.0556 121.424 36.0122 121.721 35.7857 121.796C35.2278 121.983 35.3053 120.798 35.0884 119.951C34.9155 119.275 34.5992 118.632 34.138 118.104C34.138 118.104 33.9911 117.428 34.4719 117.455Z" fill="#FF3E1D"/>
<path fill-rule="evenodd" clip-rule="evenodd" d="M34.4719 117.455C34.8118 117.494 35.0224 117.918 35.2355 118.268C35.8093 119.209 36.0563 120.319 36.0556 121.424C36.0556 121.424 36.0122 121.721 35.7857 121.796C35.2278 121.983 35.3053 120.798 35.0884 119.951C34.9155 119.275 34.5992 118.632 34.138 118.104C34.138 118.104 33.9911 117.428 34.4719 117.455Z" fill="white" fill-opacity="0.8"/>
<g style="mix-blend-mode:overlay">
<path d="M36.35 128.805C36.35 128.805 36.7385 128.842 37.394 128.169L38.0358 154.27L35.0656 154.218L36.35 128.805Z" fill="black" fill-opacity="0.25"/>
</g>
</svg>
