<svg width="173" height="41" viewBox="0 0 173 41" fill="none" xmlns="http://www.w3.org/2000/svg">
<g id="Logo" clip-path="url(#clip0_0_281)">
<path id="sneat" d="M52.7573 34V12.31H59.1173L64.0823 27.775L69.0923 12.31H75.4373V34H71.0123V17.41L65.7923 34H62.3573L57.1673 17.485V34H52.7573ZM83.734 34.3C82.744 34.3 81.854 34.115 81.064 33.745C80.274 33.375 79.649 32.84 79.189 32.14C78.729 31.43 78.499 30.57 78.499 29.56C78.499 27.86 79.134 26.57 80.404 25.69C81.674 24.8 83.679 24.34 86.419 24.31L88.354 24.28V23.35C88.354 22.64 88.144 22.095 87.724 21.715C87.314 21.325 86.674 21.135 85.804 21.145C85.164 21.155 84.554 21.305 83.974 21.595C83.404 21.885 83.014 22.39 82.804 23.11H79.159C79.219 21.99 79.544 21.07 80.134 20.35C80.724 19.62 81.524 19.08 82.534 18.73C83.554 18.37 84.709 18.19 85.999 18.19C87.589 18.19 88.864 18.39 89.824 18.79C90.784 19.18 91.479 19.745 91.909 20.485C92.339 21.215 92.554 22.085 92.554 23.095V34H88.894L88.534 31.33C88.004 32.45 87.339 33.225 86.539 33.655C85.749 34.085 84.814 34.3 83.734 34.3ZM85.204 31.42C85.604 31.42 85.989 31.35 86.359 31.21C86.739 31.06 87.074 30.865 87.364 30.625C87.664 30.375 87.904 30.095 88.084 29.785C88.264 29.475 88.354 29.155 88.354 28.825V26.53L86.779 26.56C86.049 26.57 85.369 26.66 84.739 26.83C84.109 26.99 83.599 27.255 83.209 27.625C82.829 27.995 82.639 28.495 82.639 29.125C82.639 29.845 82.889 30.41 83.389 30.82C83.889 31.22 84.494 31.42 85.204 31.42ZM101.912 34.3C100.832 34.3 99.7925 34.125 98.7925 33.775C97.7925 33.415 96.9475 32.855 96.2575 32.095C95.5675 31.325 95.1275 30.33 94.9375 29.11H98.7325C98.8625 29.66 99.0975 30.095 99.4375 30.415C99.7875 30.735 100.182 30.965 100.622 31.105C101.062 31.235 101.482 31.3 101.882 31.3C102.722 31.3 103.397 31.17 103.907 30.91C104.427 30.64 104.687 30.23 104.687 29.68C104.687 29.26 104.532 28.925 104.222 28.675C103.922 28.425 103.422 28.235 102.722 28.105L99.9925 27.535C98.6225 27.245 97.5225 26.755 96.6925 26.065C95.8625 25.365 95.4375 24.375 95.4175 23.095C95.4175 22.165 95.6625 21.33 96.1525 20.59C96.6525 19.85 97.3875 19.265 98.3575 18.835C99.3275 18.405 100.517 18.19 101.927 18.19C103.837 18.19 105.362 18.61 106.502 19.45C107.652 20.29 108.237 21.475 108.257 23.005H104.597C104.487 22.405 104.187 21.945 103.697 21.625C103.217 21.295 102.612 21.13 101.882 21.13C101.122 21.13 100.497 21.265 100.007 21.535C99.5175 21.805 99.2725 22.215 99.2725 22.765C99.2725 23.175 99.4725 23.5 99.8725 23.74C100.272 23.97 100.892 24.17 101.732 24.34L104.252 24.91C105.122 25.12 105.827 25.41 106.367 25.78C106.917 26.14 107.342 26.535 107.642 26.965C107.942 27.395 108.147 27.83 108.257 28.27C108.377 28.7 108.437 29.09 108.437 29.44C108.437 30.47 108.162 31.35 107.612 32.08C107.062 32.8 106.297 33.35 105.317 33.73C104.337 34.11 103.202 34.3 101.912 34.3ZM111.032 34V18.49H115.322V20.68C115.792 20 116.422 19.415 117.212 18.925C118.012 18.435 119.017 18.19 120.227 18.19C120.757 18.19 121.297 18.285 121.847 18.475C122.397 18.665 122.912 18.945 123.392 19.315C123.882 19.675 124.277 20.13 124.577 20.68C125.077 19.97 125.732 19.38 126.542 18.91C127.362 18.43 128.272 18.19 129.272 18.19C129.852 18.19 130.437 18.285 131.027 18.475C131.627 18.665 132.177 18.975 132.677 19.405C133.177 19.835 133.577 20.41 133.877 21.13C134.187 21.84 134.342 22.72 134.342 23.77V34H129.962V24.31C129.962 23.69 129.837 23.195 129.587 22.825C129.347 22.445 129.037 22.175 128.657 22.015C128.287 21.845 127.892 21.76 127.472 21.76C127.082 21.76 126.687 21.84 126.287 22C125.887 22.15 125.547 22.395 125.267 22.735C124.987 23.075 124.847 23.52 124.847 24.07V34H120.482V23.92C120.482 23.45 120.357 23.055 120.107 22.735C119.857 22.415 119.542 22.175 119.162 22.015C118.792 21.845 118.412 21.76 118.022 21.76C117.622 21.76 117.222 21.845 116.822 22.015C116.422 22.175 116.087 22.43 115.817 22.78C115.547 23.12 115.412 23.55 115.412 24.07V34H111.032ZM141.802 34.3C140.812 34.3 139.922 34.115 139.132 33.745C138.342 33.375 137.717 32.84 137.257 32.14C136.797 31.43 136.567 30.57 136.567 29.56C136.567 27.86 137.202 26.57 138.472 25.69C139.742 24.8 141.747 24.34 144.487 24.31L146.422 24.28V23.35C146.422 22.64 146.212 22.095 145.792 21.715C145.382 21.325 144.742 21.135 143.872 21.145C143.232 21.155 142.622 21.305 142.042 21.595C141.472 21.885 141.082 22.39 140.872 23.11H137.227C137.287 21.99 137.612 21.07 138.202 20.35C138.792 19.62 139.592 19.08 140.602 18.73C141.622 18.37 142.777 18.19 144.067 18.19C145.657 18.19 146.932 18.39 147.892 18.79C148.852 19.18 149.547 19.745 149.977 20.485C150.407 21.215 150.622 22.085 150.622 23.095V34H146.962L146.602 31.33C146.072 32.45 145.407 33.225 144.607 33.655C143.817 34.085 142.882 34.3 141.802 34.3ZM143.272 31.42C143.672 31.42 144.057 31.35 144.427 31.21C144.807 31.06 145.142 30.865 145.432 30.625C145.732 30.375 145.972 30.095 146.152 29.785C146.332 29.475 146.422 29.155 146.422 28.825V26.53L144.847 26.56C144.117 26.57 143.437 26.66 142.807 26.83C142.177 26.99 141.667 27.255 141.277 27.625C140.897 27.995 140.707 28.495 140.707 29.125C140.707 29.845 140.957 30.41 141.457 30.82C141.957 31.22 142.562 31.42 143.272 31.42ZM159.98 34.3C158.9 34.3 157.86 34.125 156.86 33.775C155.86 33.415 155.015 32.855 154.325 32.095C153.635 31.325 153.195 30.33 153.005 29.11H156.8C156.93 29.66 157.165 30.095 157.505 30.415C157.855 30.735 158.25 30.965 158.69 31.105C159.13 31.235 159.55 31.3 159.95 31.3C160.79 31.3 161.465 31.17 161.975 30.91C162.495 30.64 162.755 30.23 162.755 29.68C162.755 29.26 162.6 28.925 162.29 28.675C161.99 28.425 161.49 28.235 160.79 28.105L158.06 27.535C156.69 27.245 155.59 26.755 154.76 26.065C153.93 25.365 153.505 24.375 153.485 23.095C153.485 22.165 153.73 21.33 154.22 20.59C154.72 19.85 155.455 19.265 156.425 18.835C157.395 18.405 158.585 18.19 159.995 18.19C161.905 18.19 163.43 18.61 164.57 19.45C165.72 20.29 166.305 21.475 166.325 23.005H162.665C162.555 22.405 162.255 21.945 161.765 21.625C161.285 21.295 160.68 21.13 159.95 21.13C159.19 21.13 158.565 21.265 158.075 21.535C157.585 21.805 157.34 22.215 157.34 22.765C157.34 23.175 157.54 23.5 157.94 23.74C158.34 23.97 158.96 24.17 159.8 24.34L162.32 24.91C163.19 25.12 163.895 25.41 164.435 25.78C164.985 26.14 165.41 26.535 165.71 26.965C166.01 27.395 166.215 27.83 166.325 28.27C166.445 28.7 166.505 29.09 166.505 29.44C166.505 30.47 166.23 31.35 165.68 32.08C165.13 32.8 164.365 33.35 163.385 33.73C162.405 34.11 161.27 34.3 159.98 34.3Z" fill="#566A7F"/>
<g id="logo">
<path id="Vector" opacity="0.7" d="M15.9919 13.143V38.6073C15.9919 38.9681 15.9017 39.2777 15.7189 39.5288C15.5385 39.7823 15.2728 39.9091 14.9243 39.9091C14.6781 39.9091 14.4392 39.8506 14.2052 39.736L4.08469 34.6777C3.78 34.5339 3.52163 34.2901 3.312 33.9513C3.10481 33.61 3 33.2736 3 32.9421V8.19446C3 7.90437 3.07312 7.65817 3.21694 7.45584C3.36319 7.25351 3.57281 7.15112 3.84825 7.15112C4.05056 7.15112 4.36988 7.26082 4.80619 7.47778L15.9285 13.0358C15.9699 13.0772 15.9919 13.1138 15.9919 13.143Z" fill="#696CFF"/>
<path id="Vector_2" opacity="0.3" d="M17.3861 15.337L29.0081 34.1342L17.3861 28.3617V15.337ZM42 15.727V38.6074C42 38.9681 41.8976 39.2631 41.6953 39.4874C41.493 39.7116 41.2176 39.8238 40.869 39.8238C40.5205 39.8238 40.1792 39.7287 39.8453 39.541L30.2464 34.7655L42 15.727Z" fill="#696CFF"/>
<path id="Vector_3" opacity="0.7" d="M41.9342 13.1211C41.9342 13.165 40.0744 16.1999 36.3523 22.2284C32.6303 28.2568 30.4511 31.7842 29.8125 32.8105L21.3251 19.0472L28.3768 7.60699C28.623 7.20233 29.0008 7 29.5078 7C29.7101 7 29.9003 7.04388 30.0733 7.1292L41.8465 12.9895C41.905 13.0211 41.9342 13.0626 41.9342 13.1211Z" fill="#696CFF"/>
</g>
</g>
<defs>
<clipPath id="clip0_0_281">
<rect width="173" height="41" fill="white"/>
</clipPath>
</defs>
</svg>
