<svg width="129" height="36" viewBox="0 0 129 36" fill="none" xmlns="http://www.w3.org/2000/svg">
<g clip-path="url(#clip0_0_813)">
<path d="M99.6759 21.601H106.273V22.641C105.94 23.096 105.608 23.6138 105.279 24.1945C104.954 24.7708 104.644 25.3753 104.349 26.008C104.055 26.6363 103.79 27.2582 103.556 27.8735C103.322 28.4845 103.127 29.0608 102.971 29.6025C102.82 30.1398 102.722 30.6057 102.679 31H101.372C101.442 30.571 101.565 30.0402 101.743 29.4075C101.925 28.7748 102.163 28.0837 102.458 27.334C102.753 26.58 103.108 25.8022 103.524 25.0005C103.94 24.1988 104.417 23.4123 104.954 22.641H99.6759V21.601ZM110.831 21.471C111.433 21.471 111.972 21.5707 112.449 21.77C112.926 21.9693 113.303 22.2597 113.58 22.641C113.857 23.0223 113.996 23.486 113.996 24.032C113.996 24.5433 113.857 24.9723 113.58 25.319C113.307 25.6657 112.954 25.93 112.521 26.112C112.837 26.1727 113.138 26.32 113.424 26.554C113.714 26.788 113.953 27.0718 114.139 27.4055C114.325 27.7392 114.419 28.088 114.419 28.452C114.419 28.9937 114.269 29.466 113.97 29.869C113.675 30.272 113.259 30.5862 112.722 30.8115C112.185 31.0325 111.554 31.143 110.831 31.143C110.111 31.143 109.483 31.0325 108.946 30.8115C108.408 30.5862 107.99 30.272 107.691 29.869C107.396 29.466 107.249 28.9937 107.249 28.452C107.249 28.088 107.34 27.7392 107.522 27.4055C107.708 27.0718 107.947 26.788 108.237 26.554C108.527 26.32 108.831 26.1727 109.147 26.112C108.718 25.93 108.363 25.6657 108.081 25.319C107.804 24.9723 107.665 24.5433 107.665 24.032C107.665 23.486 107.804 23.0223 108.081 22.641C108.358 22.2597 108.735 21.9693 109.212 21.77C109.693 21.5707 110.233 21.471 110.831 21.471ZM110.831 25.605C111.403 25.605 111.866 25.4642 112.222 25.1825C112.581 24.9008 112.761 24.5087 112.761 24.006C112.761 23.499 112.581 23.1003 112.222 22.81C111.862 22.5153 111.398 22.368 110.831 22.368C110.263 22.368 109.799 22.5153 109.44 22.81C109.08 23.1047 108.9 23.5033 108.9 24.006C108.9 24.5087 109.08 24.9008 109.44 25.1825C109.799 25.4642 110.263 25.605 110.831 25.605ZM110.831 30.168C111.528 30.168 112.085 30.012 112.501 29.7C112.917 29.3837 113.125 28.9655 113.125 28.4455C113.125 28.1032 113.03 27.7977 112.839 27.529C112.653 27.2603 112.388 27.0502 112.046 26.8985C111.704 26.7425 111.299 26.6645 110.831 26.6645C110.367 26.6645 109.964 26.7425 109.622 26.8985C109.284 27.0502 109.019 27.2603 108.829 27.529C108.642 27.7977 108.549 28.1032 108.549 28.4455C108.549 28.9655 108.755 29.3837 109.167 29.7C109.583 30.012 110.137 30.168 110.831 30.168ZM117.967 21.458C118.387 21.458 118.764 21.5685 119.098 21.7895C119.432 22.0105 119.694 22.3225 119.885 22.7255C120.075 23.1285 120.171 23.603 120.171 24.149C120.171 24.695 120.075 25.1673 119.885 25.566C119.698 25.9647 119.438 26.2745 119.105 26.4955C118.771 26.7122 118.392 26.8205 117.967 26.8205C117.538 26.8205 117.155 26.7122 116.817 26.4955C116.483 26.2745 116.219 25.9647 116.024 25.566C115.829 25.1673 115.731 24.695 115.731 24.149C115.731 23.603 115.829 23.1285 116.024 22.7255C116.219 22.3225 116.483 22.0105 116.817 21.7895C117.155 21.5685 117.538 21.458 117.967 21.458ZM117.954 26.151C118.37 26.151 118.689 25.9668 118.91 25.5985C119.135 25.2302 119.248 24.747 119.248 24.149C119.248 23.5423 119.135 23.0548 118.91 22.6865C118.684 22.3138 118.366 22.1275 117.954 22.1275C117.677 22.1275 117.441 22.2142 117.246 22.3875C117.055 22.5565 116.908 22.7927 116.804 23.096C116.704 23.3993 116.654 23.7503 116.654 24.149C116.654 24.7427 116.767 25.2258 116.992 25.5985C117.217 25.9668 117.538 26.151 117.954 26.151ZM123.85 25.7545C124.274 25.7545 124.653 25.8672 124.987 26.0925C125.321 26.3135 125.583 26.6255 125.774 27.0285C125.964 27.4315 126.06 27.9038 126.06 28.4455C126.06 28.9915 125.964 29.466 125.774 29.869C125.587 30.272 125.327 30.584 124.994 30.805C124.66 31.0217 124.279 31.13 123.85 31.13C123.421 31.13 123.037 31.0217 122.699 30.805C122.361 30.584 122.097 30.272 121.906 29.869C121.715 29.466 121.62 28.9915 121.62 28.4455C121.62 27.9038 121.715 27.4315 121.906 27.0285C122.101 26.6255 122.368 26.3135 122.706 26.0925C123.044 25.8672 123.425 25.7545 123.85 25.7545ZM123.837 30.4475C124.105 30.4475 124.337 30.363 124.532 30.194C124.727 30.0207 124.877 29.7845 124.981 29.4855C125.085 29.1865 125.137 28.8442 125.137 28.4585C125.137 28.0642 125.082 27.7153 124.974 27.412C124.87 27.1043 124.721 26.8638 124.526 26.6905C124.331 26.5172 124.101 26.4305 123.837 26.4305C123.572 26.4305 123.343 26.5193 123.148 26.697C122.953 26.8703 122.803 27.1108 122.699 27.4185C122.595 27.7218 122.543 28.0685 122.543 28.4585C122.543 28.8442 122.595 29.1865 122.699 29.4855C122.803 29.7845 122.95 30.0207 123.141 30.194C123.336 30.363 123.568 30.4475 123.837 30.4475ZM124.389 21.497L118.071 31.052L117.259 31.0455L123.603 21.497H124.389Z" fill="#697A8D"/>
<path d="M4.433 15.13C3.991 15.13 3.562 15.0758 3.146 14.9675C2.73 14.8548 2.353 14.688 2.015 14.467C1.677 14.246 1.39533 13.973 1.17 13.648C0.949 13.3187 0.810333 12.9373 0.754 12.504H2.015C2.093 12.8593 2.24683 13.1583 2.4765 13.401C2.7105 13.6437 2.99433 13.8257 3.328 13.947C3.666 14.0683 4.03217 14.129 4.4265 14.129C4.8685 14.129 5.26283 14.0683 5.6095 13.947C5.9605 13.8213 6.23567 13.6437 6.435 13.414C6.63867 13.1843 6.7405 12.9092 6.7405 12.5885C6.7405 12.3068 6.6755 12.062 6.5455 11.854C6.41983 11.646 6.23567 11.4727 5.993 11.334C5.75033 11.1953 5.45567 11.087 5.109 11.009L3.263 10.58C2.56967 10.4283 2.02583 10.1575 1.6315 9.7675C1.2415 9.3775 1.04217 8.86183 1.0335 8.2205C1.0335 7.67883 1.1765 7.20217 1.4625 6.7905C1.75283 6.37883 2.14933 6.05817 2.652 5.8285C3.159 5.59883 3.7375 5.484 4.3875 5.484C5.13717 5.484 5.76767 5.61183 6.279 5.8675C6.79033 6.12317 7.176 6.459 7.436 6.875C7.696 7.291 7.82817 7.73517 7.8325 8.2075H6.591C6.552 7.78283 6.42633 7.447 6.214 7.2C6.006 6.94867 5.74383 6.771 5.4275 6.667C5.11117 6.55867 4.76667 6.5045 4.394 6.5045C4.12533 6.5045 3.86533 6.53917 3.614 6.6085C3.367 6.6735 3.14383 6.77317 2.9445 6.9075C2.7495 7.04183 2.5935 7.20867 2.4765 7.408C2.3595 7.60733 2.301 7.83917 2.301 8.1035C2.301 8.4415 2.41583 8.71667 2.6455 8.929C2.8795 9.14133 3.302 9.32333 3.913 9.475L5.7005 9.904C6.1685 10.0037 6.54983 10.151 6.8445 10.346C7.1435 10.541 7.37317 10.762 7.5335 11.009C7.69817 11.256 7.81083 11.5138 7.8715 11.7825C7.9365 12.0512 7.969 12.3155 7.969 12.5755C7.969 13.0478 7.82817 13.479 7.5465 13.869C7.26483 14.2547 6.85967 14.5623 6.331 14.792C5.80667 15.0173 5.174 15.13 4.433 15.13ZM11.5625 15.13C11.1292 15.13 10.7457 15.0542 10.412 14.9025C10.0783 14.7465 9.81615 14.5233 9.62548 14.233C9.43915 13.9427 9.34598 13.5917 9.34598 13.18C9.34598 12.4347 9.60598 11.88 10.126 11.516C10.646 11.152 11.4802 10.957 12.6285 10.931L13.831 10.8985V10.372C13.831 9.96033 13.7075 9.63533 13.4605 9.397C13.2135 9.15433 12.83 9.033 12.31 9.033C11.9243 9.03733 11.5842 9.12833 11.2895 9.306C10.9992 9.48367 10.8107 9.774 10.724 10.177H9.66448C9.69048 9.73933 9.81398 9.371 10.035 9.072C10.256 8.76867 10.5637 8.539 10.958 8.383C11.3567 8.227 11.8268 8.149 12.3685 8.149C12.9535 8.149 13.4388 8.23133 13.8245 8.396C14.2145 8.56067 14.5048 8.80333 14.6955 9.124C14.8905 9.44467 14.988 9.839 14.988 10.307V15H13.961L13.8765 13.739C13.6165 14.2633 13.285 14.6273 12.882 14.831C12.4833 15.0303 12.0435 15.13 11.5625 15.13ZM11.9265 14.2655C12.1518 14.2655 12.375 14.2243 12.596 14.142C12.8213 14.0597 13.0272 13.9492 13.2135 13.8105C13.3998 13.6675 13.5472 13.5093 13.6555 13.336C13.7682 13.1583 13.8267 12.9763 13.831 12.79V11.6395L12.83 11.659C12.3187 11.6677 11.8897 11.7197 11.543 11.815C11.2007 11.9103 10.9428 12.0598 10.7695 12.2635C10.6005 12.4672 10.516 12.7337 10.516 13.063C10.516 13.44 10.646 13.7347 10.906 13.947C11.1703 14.1593 11.5105 14.2655 11.9265 14.2655ZM18.7379 15.0845C18.3739 15.0845 18.0792 15.0347 17.8539 14.935C17.6329 14.8353 17.4617 14.701 17.3404 14.532C17.2234 14.363 17.1432 14.1702 17.0999 13.9535C17.0609 13.7325 17.0414 13.505 17.0414 13.271V5.341H18.2244V13.154C18.2244 13.492 18.2894 13.7455 18.4194 13.9145C18.5537 14.0835 18.74 14.1767 18.9784 14.194L19.3424 14.2005V14.9805C19.2427 15.0108 19.1387 15.0347 19.0304 15.052C18.922 15.0737 18.8245 15.0845 18.7379 15.0845ZM21.6699 11.919C21.6699 12.3437 21.7392 12.7293 21.8779 13.076C22.0209 13.4183 22.2354 13.6913 22.5214 13.895C22.8117 14.0987 23.1735 14.2005 23.6069 14.2005C24.0359 14.2005 24.4042 14.1008 24.7119 13.9015C25.0239 13.7022 25.2232 13.414 25.3099 13.037H26.4474C26.365 13.492 26.183 13.8755 25.9014 14.1875C25.6197 14.4995 25.2795 14.7357 24.8809 14.896C24.4822 15.052 24.0662 15.13 23.6329 15.13C23.0045 15.13 22.452 14.9935 21.9754 14.7205C21.4987 14.4475 21.126 14.0553 20.8574 13.544C20.5887 13.0327 20.4544 12.4195 20.4544 11.7045C20.4544 10.9982 20.5757 10.3785 20.8184 9.8455C21.061 9.3125 21.412 8.8965 21.8714 8.5975C22.335 8.2985 22.8919 8.149 23.5419 8.149C24.1745 8.149 24.7097 8.2855 25.1474 8.5585C25.585 8.8315 25.9165 9.21717 26.1419 9.7155C26.3715 10.2095 26.4864 10.7967 26.4864 11.477V11.919H21.6699ZM21.6764 11.1065H25.3294C25.3294 10.7208 25.2644 10.3742 25.1344 10.0665C25.0044 9.7545 24.805 9.50967 24.5364 9.332C24.272 9.15 23.9384 9.059 23.5354 9.059C23.115 9.059 22.7662 9.16083 22.4889 9.3645C22.2159 9.56383 22.01 9.82167 21.8714 10.138C21.737 10.45 21.672 10.7728 21.6764 11.1065ZM30.4845 15.13C30.0165 15.13 29.581 15.0585 29.178 14.9155C28.7793 14.7682 28.4478 14.5407 28.1835 14.233C27.9192 13.921 27.7523 13.5245 27.683 13.0435H28.775C28.8357 13.3078 28.944 13.5288 29.1 13.7065C29.2603 13.8798 29.4597 14.012 29.698 14.103C29.9363 14.1897 30.1963 14.233 30.478 14.233C30.9287 14.233 31.2927 14.1485 31.57 13.9795C31.8473 13.8105 31.986 13.5505 31.986 13.1995C31.986 12.9525 31.9123 12.7553 31.765 12.608C31.622 12.4563 31.3988 12.3458 31.0955 12.2765L29.7045 11.932C29.1628 11.802 28.7295 11.5983 28.4045 11.321C28.0795 11.0437 27.917 10.6558 27.917 10.1575C27.9127 9.76317 28.0058 9.4165 28.1965 9.1175C28.3872 8.8185 28.6732 8.58233 29.0545 8.409C29.4358 8.23567 29.9103 8.149 30.478 8.149C31.206 8.149 31.7932 8.31367 32.2395 8.643C32.6902 8.968 32.9242 9.44683 32.9415 10.0795H31.882C31.8387 9.75883 31.6935 9.50533 31.4465 9.319C31.2038 9.12833 30.8767 9.033 30.465 9.033C30.036 9.033 29.6872 9.11967 29.4185 9.293C29.1498 9.462 29.0155 9.72633 29.0155 10.086C29.0155 10.3243 29.1108 10.5128 29.3015 10.6515C29.4922 10.7858 29.7738 10.8985 30.1465 10.9895L31.492 11.3275C31.804 11.4098 32.0597 11.5182 32.259 11.6525C32.4627 11.7868 32.623 11.9363 32.74 12.101C32.8613 12.2657 32.9458 12.439 32.9935 12.621C33.0455 12.7987 33.0715 12.9698 33.0715 13.1345C33.0715 13.5462 32.9675 13.9015 32.7595 14.2005C32.5558 14.4952 32.2612 14.7248 31.8755 14.8895C31.4942 15.0498 31.0305 15.13 30.4845 15.13ZM37.0011 6.706V5.601H44.1121V6.706H41.2456V15H40.0366V6.706H37.0011ZM46.5 15.13C46.0667 15.13 45.6832 15.0542 45.3495 14.9025C45.0158 14.7465 44.7537 14.5233 44.563 14.233C44.3767 13.9427 44.2835 13.5917 44.2835 13.18C44.2835 12.4347 44.5435 11.88 45.0635 11.516C45.5835 11.152 46.4177 10.957 47.566 10.931L48.7685 10.8985V10.372C48.7685 9.96033 48.645 9.63533 48.398 9.397C48.151 9.15433 47.7675 9.033 47.2475 9.033C46.8618 9.03733 46.5217 9.12833 46.227 9.306C45.9367 9.48367 45.7482 9.774 45.6615 10.177H44.602C44.628 9.73933 44.7515 9.371 44.9725 9.072C45.1935 8.76867 45.5012 8.539 45.8955 8.383C46.2942 8.227 46.7643 8.149 47.306 8.149C47.891 8.149 48.3763 8.23133 48.762 8.396C49.152 8.56067 49.4423 8.80333 49.633 9.124C49.828 9.44467 49.9255 9.839 49.9255 10.307V15H48.8985L48.814 13.739C48.554 14.2633 48.2225 14.6273 47.8195 14.831C47.4208 15.0303 46.981 15.13 46.5 15.13ZM46.864 14.2655C47.0893 14.2655 47.3125 14.2243 47.5335 14.142C47.7588 14.0597 47.9647 13.9492 48.151 13.8105C48.3373 13.6675 48.4847 13.5093 48.593 13.336C48.7057 13.1583 48.7642 12.9763 48.7685 12.79V11.6395L47.7675 11.659C47.2562 11.6677 46.8272 11.7197 46.4805 11.815C46.1382 11.9103 45.8803 12.0598 45.707 12.2635C45.538 12.4672 45.4535 12.7337 45.4535 13.063C45.4535 13.44 45.5835 13.7347 45.8435 13.947C46.1078 14.1593 46.448 14.2655 46.864 14.2655ZM51.9789 15V8.279H53.1229V9.5725C53.2355 9.25183 53.3937 8.9875 53.5974 8.7795C53.801 8.56717 54.0329 8.409 54.2929 8.305C54.5572 8.201 54.8302 8.149 55.1119 8.149C55.2115 8.149 55.309 8.1555 55.4044 8.1685C55.4997 8.1815 55.5734 8.20317 55.6254 8.2335V9.397C55.5604 9.36667 55.4759 9.34717 55.3719 9.3385C55.2722 9.3255 55.1877 9.319 55.1184 9.319C54.8497 9.30167 54.5984 9.319 54.3644 9.371C54.1304 9.41867 53.9245 9.50317 53.7469 9.6245C53.5692 9.74583 53.4284 9.90617 53.3244 10.1055C53.2247 10.3005 53.1749 10.5388 53.1749 10.8205V15H51.9789ZM59.8529 17.223C58.7956 17.223 57.9722 17.0692 57.3829 16.7615C56.7979 16.4582 56.5054 16.0227 56.5054 15.455C56.5054 15.2123 56.5617 15.0065 56.6744 14.8375C56.7871 14.6642 56.9214 14.5212 57.0774 14.4085C57.2334 14.2958 57.3786 14.207 57.5129 14.142C57.6472 14.0727 57.7339 14.0228 57.7729 13.9925C57.6992 13.9492 57.6061 13.895 57.4934 13.83C57.3851 13.765 57.2897 13.6783 57.2074 13.57C57.1251 13.4617 57.0839 13.3208 57.0839 13.1475C57.0839 12.9352 57.1836 12.7402 57.3829 12.5625C57.5822 12.3848 57.8769 12.2527 58.2669 12.166C57.8726 11.9667 57.5649 11.7023 57.3439 11.373C57.1229 11.0437 57.0124 10.6862 57.0124 10.3005C57.0124 9.86717 57.1294 9.49017 57.3634 9.1695C57.6017 8.84883 57.9397 8.604 58.3774 8.435C58.8151 8.26167 59.3351 8.175 59.9374 8.175C60.3751 8.175 60.7434 8.227 61.0424 8.331C61.3414 8.43067 61.6187 8.57367 61.8744 8.76C61.9437 8.72967 62.0521 8.68417 62.1994 8.6235C62.3511 8.5585 62.5179 8.48917 62.6999 8.4155C62.8819 8.34183 63.0509 8.2725 63.2069 8.2075C63.3672 8.13817 63.4951 8.08617 63.5904 8.0515L63.5839 9.163L62.4074 9.384C62.4724 9.52267 62.5244 9.67433 62.5634 9.839C62.6067 10.0037 62.6284 10.1575 62.6284 10.3005C62.6284 10.6948 62.5244 11.0523 62.3164 11.373C62.1127 11.6937 61.8029 11.9493 61.3869 12.14C60.9709 12.3307 60.4509 12.426 59.8269 12.426C59.7749 12.426 59.7077 12.426 59.6254 12.426C59.5474 12.4217 59.4802 12.4173 59.4239 12.413C58.9646 12.426 58.6482 12.478 58.4749 12.569C58.3016 12.6557 58.2149 12.7532 58.2149 12.8615C58.2149 12.9872 58.3124 13.0738 58.5074 13.1215C58.7024 13.1692 59.0339 13.2103 59.5019 13.245C59.6709 13.2537 59.8789 13.2645 60.1259 13.2775C60.3772 13.2905 60.6546 13.3078 60.9579 13.3295C61.6642 13.3728 62.2081 13.5527 62.5894 13.869C62.9707 14.1853 63.1614 14.6122 63.1614 15.1495C63.1614 15.7605 62.8884 16.2588 62.3424 16.6445C61.7964 17.0302 60.9666 17.223 59.8529 17.223ZM60.0674 16.4495C60.6871 16.4495 61.1616 16.3563 61.4909 16.17C61.8202 15.9837 61.9849 15.702 61.9849 15.325C61.9849 15.0563 61.8831 14.8375 61.6794 14.6685C61.4801 14.4952 61.1746 14.3955 60.7629 14.3695L58.8779 14.246C58.7089 14.2373 58.5334 14.2807 58.3514 14.376C58.1694 14.467 58.0134 14.5948 57.8834 14.7595C57.7577 14.9242 57.6949 15.1105 57.6949 15.3185C57.6949 15.6738 57.8877 15.9512 58.2734 16.1505C58.6634 16.3498 59.2614 16.4495 60.0674 16.4495ZM59.8594 11.6525C60.3447 11.6525 60.7347 11.5398 61.0294 11.3145C61.3284 11.0892 61.4779 10.7555 61.4779 10.3135C61.4779 9.8585 61.3284 9.51183 61.0294 9.2735C60.7347 9.03517 60.3447 8.916 59.8594 8.916C59.3697 8.916 58.9732 9.03733 58.6699 9.28C58.3709 9.51833 58.2214 9.86283 58.2214 10.3135C58.2214 10.7382 58.3644 11.0675 58.6504 11.3015C58.9364 11.5355 59.3394 11.6525 59.8594 11.6525ZM65.748 11.919C65.748 12.3437 65.8173 12.7293 65.956 13.076C66.099 13.4183 66.3135 13.6913 66.5995 13.895C66.8898 14.0987 67.2517 14.2005 67.685 14.2005C68.114 14.2005 68.4823 14.1008 68.79 13.9015C69.102 13.7022 69.3013 13.414 69.388 13.037H70.5255C70.4432 13.492 70.2612 13.8755 69.9795 14.1875C69.6978 14.4995 69.3577 14.7357 68.959 14.896C68.5603 15.052 68.1443 15.13 67.711 15.13C67.0827 15.13 66.5302 14.9935 66.0535 14.7205C65.5768 14.4475 65.2042 14.0553 64.9355 13.544C64.6668 13.0327 64.5325 12.4195 64.5325 11.7045C64.5325 10.9982 64.6538 10.3785 64.8965 9.8455C65.1392 9.3125 65.4902 8.8965 65.9495 8.5975C66.4132 8.2985 66.97 8.149 67.62 8.149C68.2527 8.149 68.7878 8.2855 69.2255 8.5585C69.6632 8.8315 69.9947 9.21717 70.22 9.7155C70.4497 10.2095 70.5645 10.7967 70.5645 11.477V11.919H65.748ZM65.7545 11.1065H69.4075C69.4075 10.7208 69.3425 10.3742 69.2125 10.0665C69.0825 9.7545 68.8832 9.50967 68.6145 9.332C68.3502 9.15 68.0165 9.059 67.6135 9.059C67.1932 9.059 66.8443 9.16083 66.567 9.3645C66.294 9.56383 66.0882 9.82167 65.9495 10.138C65.8152 10.45 65.7502 10.7728 65.7545 11.1065ZM75.414 9.1565H73.8995V13.336C73.8995 13.5743 73.9233 13.7498 73.971 13.8625C74.023 13.9708 74.1075 14.0402 74.2245 14.0705C74.3458 14.1008 74.5105 14.116 74.7185 14.116H75.453V14.922C75.3707 14.9523 75.245 14.9783 75.076 15C74.9113 15.0217 74.7055 15.0325 74.4585 15.0325C73.9948 15.0325 73.6352 14.9697 73.3795 14.844C73.1238 14.7183 72.944 14.532 72.84 14.285C72.7403 14.038 72.6905 13.7347 72.6905 13.375V9.1565H71.5985V8.279H72.723L73.0155 6.3225H73.8995V8.2725H75.414V9.1565Z" fill="#A1ACB8"/>
<rect y="23" width="89.6857" height="8" rx="4" fill="#435971"/>
<rect y="23" width="89.6857" height="8" rx="4" fill="white" fill-opacity="0.9"/>
<g opacity="0.4" filter="url(#filter0_d_0_813)">
<rect y="23" width="66.7429" height="8" rx="4" fill="white"/>
</g>
<rect y="23" width="66.7429" height="8" rx="4" fill="#696CFF"/>
</g>
<defs>
<filter id="filter0_d_0_813" x="-4" y="21" width="74.7429" height="16" filterUnits="userSpaceOnUse" color-interpolation-filters="sRGB">
<feFlood flood-opacity="0" result="BackgroundImageFix"/>
<feColorMatrix in="SourceAlpha" type="matrix" values="0 0 0 0 0 0 0 0 0 0 0 0 0 0 0 0 0 0 127 0" result="hardAlpha"/>
<feOffset dy="2"/>
<feGaussianBlur stdDeviation="2"/>
<feColorMatrix type="matrix" values="0 0 0 0 0.411765 0 0 0 0 0.423529 0 0 0 0 1 0 0 0 1 0"/>
<feBlend mode="normal" in2="BackgroundImageFix" result="effect1_dropShadow_0_813"/>
<feBlend mode="normal" in="SourceGraphic" in2="effect1_dropShadow_0_813" result="shape"/>
</filter>
<clipPath id="clip0_0_813">
<rect width="129" height="36" fill="white"/>
</clipPath>
</defs>
</svg>
